<?xml version="1.0" standalone="no"?>
<!DOCTYPE svg PUBLIC "-//W3C//DTD SVG 20010904//EN"
 "http://www.w3.org/TR/2001/REC-SVG-20010904/DTD/svg10.dtd">
<svg version="1.0" xmlns="http://www.w3.org/2000/svg"
 width="613.000000pt" height="1129.000000pt" viewBox="0 0 613.000000 1129.000000"
 preserveAspectRatio="xMidYMid meet">

<g transform="translate(0.000000,1129.000000) scale(0.100000,-0.100000)"
fill="#000000" stroke="none">
<path d="M1921 11253 c-6 -21 -11 -49 -11 -63 0 -15 -4 -30 -9 -35 -5 -6 -11
-32 -14 -60 -3 -27 -12 -79 -20 -115 -41 -172 -59 -258 -87 -412 -16 -91 -35
-179 -40 -194 -6 -16 -18 -75 -26 -133 -32 -236 -58 -380 -128 -711 -14 -63
-30 -162 -35 -220 -6 -57 -16 -109 -21 -114 -6 -6 -10 -22 -10 -38 0 -22 9
-32 43 -53 24 -14 59 -25 78 -25 19 0 39 -4 45 -8 23 -16 44 -58 44 -88 0 -24
5 -33 22 -37 36 -10 662 5 675 15 19 15 -10 64 -42 71 -22 4 -26 1 -22 -14 7
-26 -16 -28 -290 -26 l-242 2 -30 29 c-17 16 -28 33 -25 37 2 4 0 10 -6 14
-18 11 -11 64 13 87 19 20 23 37 28 143 6 113 11 141 46 275 25 94 11 90 294
90 244 0 279 4 251 32 -8 8 -67 8 -200 0 -193 -11 -252 -6 -280 22 -14 14 -15
23 -3 73 7 32 17 83 21 113 4 30 22 109 38 175 34 133 53 212 77 325 27 124
21 120 187 120 l141 0 -7 48 c-4 26 -9 73 -13 105 -6 60 -19 76 -25 31 -3 -31
-14 -38 -82 -55 -39 -10 -45 -14 -30 -20 10 -4 33 -8 51 -8 17 -1 34 -5 37
-10 7 -11 -43 -21 -110 -21 -42 0 -54 3 -54 15 0 9 7 18 15 21 12 5 13 9 4 20
-7 8 -9 29 -6 49 3 19 1 37 -4 40 -5 4 -9 20 -9 37 0 29 47 237 95 421 l24 87
-169 0 -169 0 -10 -37z"/>
<path d="M2880 11274 c0 -8 -11 -35 -25 -60 -14 -25 -23 -49 -20 -54 3 -5 1
-11 -5 -15 -12 -8 -13 -55 -1 -73 13 -21 46 -10 49 16 2 12 -1 22 -7 22 -6 0
-11 18 -11 39 0 36 3 40 35 51 19 6 35 18 35 26 0 8 9 23 20 34 11 11 20 22
20 25 0 3 -20 5 -45 5 -34 0 -45 -4 -45 -16z"/>
<path d="M5283 11273 c2 -10 -2 -30 -10 -45 -8 -17 -9 -29 -3 -33 14 -8 29 3
41 28 5 12 16 32 25 45 16 22 16 22 -21 22 -30 0 -36 -3 -32 -17z"/>
<path d="M5570 11281 c0 -5 -10 -11 -22 -14 -13 -4 -31 -12 -41 -20 -16 -11
-17 -18 -8 -53 9 -34 18 -44 53 -60 28 -13 42 -25 39 -34 -2 -8 -6 -28 -9 -45
-5 -37 -38 -64 -76 -65 -25 0 -27 -3 -21 -22 4 -13 7 -42 6 -65 -1 -24 2 -43
6 -43 16 0 53 31 53 44 0 21 24 66 36 66 6 0 24 18 39 40 25 36 27 45 19 83
-8 35 -13 42 -31 39 -12 -2 -24 2 -28 8 -3 5 -1 10 4 10 6 0 11 6 11 14 0 7 7
19 15 26 9 8 15 30 15 56 0 42 -1 44 -30 44 -16 0 -30 -4 -30 -9z"/>
<path d="M3150 11241 c0 -5 3 -11 8 -13 11 -5 42 -64 42 -82 0 -9 5 -16 10
-16 12 0 4 42 -16 81 -13 26 -44 47 -44 30z"/>
<path d="M4921 11184 c0 -11 3 -14 6 -6 3 7 2 16 -1 19 -3 4 -6 -2 -5 -13z"/>
<path d="M5006 11181 c-8 -12 9 -57 25 -67 9 -5 10 1 6 26 -4 18 -7 36 -7 41
0 12 -17 11 -24 0z"/>
<path d="M5040 11010 c0 -5 5 -10 10 -10 6 0 10 5 10 10 0 6 -4 10 -10 10 -5
0 -10 -4 -10 -10z"/>
<path d="M2940 10986 c0 -20 105 -50 128 -37 14 8 10 10 -18 11 -19 0 -52 9
-73 20 -29 16 -37 17 -37 6z"/>
<path d="M4330 10949 c0 -5 5 -7 10 -4 6 3 10 8 10 11 0 2 -4 4 -10 4 -5 0
-10 -5 -10 -11z"/>
<path d="M5890 10912 c0 -10 -7 -28 -16 -41 -22 -31 -5 -49 31 -33 27 13 30
27 15 66 -11 30 -30 35 -30 8z"/>
<path d="M5673 10913 c-7 -2 -13 -11 -13 -19 0 -23 -27 -69 -64 -110 -20 -22
-39 -57 -46 -83 -6 -25 -16 -53 -21 -61 -39 -65 -41 -71 -26 -93 13 -20 11
-27 -23 -80 -46 -71 -85 -104 -94 -81 -5 12 -10 13 -26 4 -31 -16 -36 -40 -14
-57 18 -15 18 -15 -3 -9 -29 9 -37 -7 -22 -48 9 -25 9 -41 0 -66 -6 -18 -8
-36 -5 -39 8 -8 84 78 84 95 0 7 8 19 18 26 9 7 25 25 34 40 10 14 28 37 40
51 13 14 31 48 41 75 9 28 29 64 42 81 14 16 30 43 36 60 6 17 15 31 20 31 5
0 9 7 9 16 0 13 -6 11 -26 -10 -25 -24 -51 -36 -42 -18 2 4 14 29 27 55 12 26
36 68 52 92 18 26 27 50 23 60 -4 10 2 29 15 46 27 37 20 57 -16 42z"/>
<path d="M3902 10791 c-12 -21 -22 -47 -22 -57 0 -11 -7 -32 -15 -48 -8 -15
-15 -35 -15 -42 0 -8 -4 -14 -10 -14 -5 0 -10 -8 -10 -17 0 -12 9 -5 25 19 14
20 25 42 25 47 0 6 4 11 8 11 4 0 16 26 26 58 9 31 20 63 23 70 12 29 -15 9
-35 -27z"/>
<path d="M3325 10734 c-8 -20 -15 -45 -15 -55 0 -27 -16 -32 -45 -13 -16 10
-34 14 -50 10 -23 -6 -25 -11 -23 -44 l3 -37 -97 -3 c-88 -2 -97 -5 -104 -24
-4 -13 -1 -24 7 -29 8 -5 115 -9 239 -9 124 1 239 1 255 0 66 -1 158 10 171
21 16 13 19 45 5 53 -5 3 -28 2 -52 -2 -69 -13 -160 -1 -173 23 -6 10 -20 27
-32 37 -11 9 -29 37 -38 63 -10 25 -22 45 -27 45 -5 0 -16 -16 -24 -36z"/>
<path d="M5894 10668 c-12 -19 -54 -102 -54 -107 0 -2 12 -1 26 2 32 6 41 -14
21 -43 -9 -13 -13 -36 -10 -63 5 -46 -18 -114 -42 -124 -8 -3 -15 -13 -15 -22
0 -10 -13 -30 -30 -46 l-30 -29 -6 32 c-4 18 -10 32 -14 32 -4 0 -24 -13 -45
-30 -21 -16 -42 -30 -47 -30 -6 0 -8 -6 -5 -14 3 -8 -3 -30 -14 -50 -10 -20
-19 -41 -19 -47 0 -7 -8 -18 -17 -25 -11 -8 -13 -13 -5 -14 6 0 12 -9 12 -21
0 -15 -5 -20 -22 -17 -33 4 -60 -27 -62 -73 -1 -21 -7 -44 -14 -51 -7 -7 -12
-18 -12 -25 0 -7 -9 -17 -21 -23 -17 -10 -23 -7 -41 15 l-21 27 -22 -46 c-12
-25 -25 -43 -29 -39 -3 3 -6 -4 -6 -16 0 -12 7 -24 15 -27 23 -9 18 -21 -21
-60 -33 -33 -37 -35 -53 -20 -10 9 -21 13 -24 9 -11 -10 -8 -43 3 -43 13 0 13
-47 0 -55 -6 -4 -22 0 -35 9 -34 22 -43 20 -72 -14 -17 -21 -34 -30 -54 -30
-26 0 -29 -3 -23 -25 4 -18 1 -32 -11 -45 -16 -18 -17 -24 -5 -60 10 -31 11
-46 2 -66 -12 -25 -32 -25 -32 2 0 8 -4 14 -9 14 -15 0 -29 -24 -36 -62 -4
-21 -22 -57 -41 -80 -19 -24 -34 -49 -34 -57 0 -8 -10 -30 -22 -48 -18 -26
-30 -33 -55 -33 -31 0 -39 -10 -34 -43 1 -4 -8 -26 -19 -49 -27 -56 -16 -62
26 -14 24 28 39 37 54 33 12 -3 20 0 20 7 0 14 48 106 66 126 8 8 40 49 71 90
31 41 62 79 70 83 7 4 20 22 29 38 8 17 41 58 74 92 78 83 229 267 240 292 4
11 25 36 45 55 21 19 49 53 63 75 14 22 33 45 42 52 9 6 29 32 44 56 16 25 39
50 52 56 13 5 31 25 40 43 19 37 41 67 87 118 47 51 140 171 153 196 8 14 8
27 2 39 -6 9 -7 35 -4 56 6 35 4 39 -14 39 -23 0 -42 37 -30 59 9 16 1 51 -11
51 -4 0 -11 -6 -15 -12z m-774 -1178 c0 -5 -9 -10 -21 -10 -11 0 -17 5 -14 10
3 6 13 10 21 10 8 0 14 -4 14 -10z"/>
<path d="M4990 10568 c0 -39 13 -51 24 -22 11 29 6 61 -9 61 -11 0 -15 -11
-15 -39z"/>
<path d="M3917 10543 c-7 -35 -2 -42 24 -36 15 4 19 12 17 32 -4 37 -34 40
-41 4z"/>
<path d="M6072 10508 c-17 -17 -16 -156 2 -189 11 -22 11 -31 0 -59 -17 -40
-19 -75 -3 -47 12 20 49 23 49 4 0 -7 -9 -30 -21 -51 -16 -30 -20 -53 -18
-110 2 -39 -2 -79 -8 -90 -7 -13 -6 -29 3 -56 12 -35 26 -158 44 -395 4 -65 7
58 8 353 1 287 -2 452 -8 452 -6 0 -10 10 -10 23 0 12 -7 31 -15 41 -21 28
-19 41 10 56 21 11 25 20 23 44 -3 34 -33 47 -56 24z"/>
<path d="M3922 10455 c0 -16 2 -22 5 -12 2 9 2 23 0 30 -3 6 -5 -1 -5 -18z"/>
<path d="M5758 10440 c-8 -18 -18 -28 -26 -25 -9 3 -12 -1 -10 -13 2 -9 12
-18 23 -18 11 -1 26 -2 33 -3 6 -1 12 -8 12 -16 0 -28 16 -15 38 31 24 49 22
65 -7 57 -10 -3 -22 0 -25 6 -12 19 -24 12 -38 -19z"/>
<path d="M5079 10438 c-1 -17 -7 -50 -20 -116 -8 -38 -19 -61 -40 -79 -16 -15
-29 -32 -29 -39 0 -8 -13 -23 -29 -35 -16 -12 -33 -33 -37 -48 -4 -14 -8 -28
-9 -31 -6 -22 -93 -202 -107 -222 -7 -9 -10 -20 -7 -23 9 -8 39 5 39 17 0 5
20 36 44 68 24 32 56 79 71 106 15 27 45 65 66 86 21 21 39 45 39 52 0 8 11
27 25 42 14 15 25 34 25 44 0 9 13 29 28 44 27 25 30 26 43 10 13 -15 15 -12
20 32 3 27 9 61 13 76 l8 27 -51 -24 c-28 -14 -53 -25 -55 -25 -2 0 -7 11 -10
25 -7 26 -25 35 -27 13z"/>
<path d="M4766 10414 c-4 -10 -1 -14 6 -12 15 5 23 28 10 28 -5 0 -13 -7 -16
-16z"/>
<path d="M4581 10324 c-13 -29 -6 -47 9 -24 9 14 14 50 7 50 -2 0 -9 -12 -16
-26z"/>
<path d="M4810 10255 c0 -8 7 -15 15 -15 8 0 15 7 15 15 0 8 -7 15 -15 15 -8
0 -15 -7 -15 -15z"/>
<path d="M5155 10165 c-38 -40 -53 -88 -34 -111 18 -22 34 -11 34 22 0 22 5
30 22 32 14 2 23 -3 26 -15 4 -17 4 -17 12 0 10 23 -3 107 -17 107 -6 0 -25
-16 -43 -35z"/>
<path d="M3585 10180 c-56 -15 -137 -49 -155 -65 -9 -8 -28 -15 -42 -15 -24 0
-25 -3 -24 -55 0 -38 4 -55 13 -55 7 0 13 -4 13 -10 0 -15 16 -12 34 6 9 8 16
31 16 49 0 36 31 68 56 58 8 -3 21 0 29 7 12 10 18 7 31 -16 24 -41 98 -88
129 -80 15 4 29 0 39 -10 23 -22 20 -37 -7 -30 -21 5 -22 2 -22 -42 0 -26 3
-52 8 -59 8 -13 -8 -27 -23 -18 -5 3 -7 11 -4 18 3 8 -6 13 -22 15 -36 3 -41
9 -26 32 7 11 12 22 12 24 0 10 -32 36 -45 36 -18 0 -49 -90 -35 -104 5 -5 10
-20 10 -33 0 -18 6 -23 24 -23 24 0 36 -16 36 -50 0 -28 -11 -30 -71 -15 -30
8 -68 15 -86 15 -17 0 -35 5 -39 11 -11 18 37 50 67 45 23 -4 25 -2 26 30 1
31 -1 34 -28 34 -17 0 -32 -6 -35 -15 -4 -8 -18 -15 -33 -15 -15 0 -36 -6 -46
-14 -19 -14 -19 -15 -1 -35 22 -24 15 -51 -13 -51 -11 0 -23 -4 -26 -10 -8
-13 -26 -13 -45 0 -13 9 -11 13 10 30 24 18 24 19 6 33 -13 9 -17 21 -13 36 6
25 5 26 -56 4 -46 -17 -50 -17 -62 0 -7 9 -34 25 -59 33 -34 12 -50 24 -57 42
-11 29 7 48 28 30 21 -17 29 1 9 20 -12 11 -20 13 -23 6 -2 -7 -12 -10 -22 -7
-10 3 -22 0 -25 -6 -12 -18 -48 -12 -73 11 -18 17 -26 19 -35 10 -16 -16 -49
-15 -70 2 -21 15 -93 13 -130 -4 -38 -18 -39 -65 -1 -97 14 -13 32 -23 39 -23
7 0 15 -13 19 -30 6 -26 9 -28 26 -17 22 13 25 37 7 55 -9 9 -9 15 -1 23 9 9
20 9 43 -1 42 -17 57 -46 36 -69 -21 -23 -20 -51 1 -66 22 -17 9 -34 -25 -30
-38 5 -60 -3 -72 -26 -16 -28 -2 -44 21 -23 10 9 25 14 35 10 9 -3 23 -1 30 5
7 6 18 8 24 4 12 -8 13 -35 1 -35 -23 0 -42 -33 -36 -61 8 -35 -9 -69 -35 -69
-11 0 -22 -10 -26 -22 -4 -13 -27 -41 -51 -63 -24 -22 -45 -50 -46 -62 -1 -18
-4 -20 -20 -11 -23 12 -27 9 -37 -38 -10 -42 -1 -93 35 -219 12 -44 32 -114
44 -155 12 -41 30 -87 41 -102 11 -15 20 -32 20 -37 0 -5 8 -16 18 -23 9 -7
46 -46 82 -87 46 -52 80 -81 115 -96 28 -13 61 -35 74 -49 14 -14 35 -26 47
-26 36 0 74 -18 74 -36 0 -8 3 -14 8 -12 4 2 20 10 35 18 25 12 30 11 55 -7
23 -17 27 -28 27 -68 0 -40 4 -50 23 -58 13 -6 22 -19 22 -33 0 -50 34 -37 44
17 8 45 -3 99 -20 105 -52 15 -50 15 -31 26 10 5 26 6 35 2 9 -4 27 -6 39 -5
13 1 23 -5 27 -17 8 -26 92 -39 115 -18 9 7 21 11 28 9 6 -2 25 3 42 11 16 9
40 16 52 16 12 0 36 9 55 20 18 12 35 17 38 11 6 -10 -12 -70 -25 -85 -15 -16
-10 -42 12 -70 18 -23 19 -30 9 -61 -6 -19 -20 -40 -31 -45 -21 -12 -33 -32
-43 -73 -7 -28 -6 -28 31 -21 52 9 58 16 104 110 37 76 39 85 30 125 -14 61
-13 100 3 113 7 6 16 34 19 63 6 49 4 53 -21 65 -33 16 -39 42 -15 62 10 8 42
35 72 60 30 25 58 46 63 46 4 0 12 -9 18 -20 10 -19 11 -19 33 -2 12 9 38 34
57 54 28 29 39 34 53 27 21 -12 22 -47 2 -73 -17 -22 -20 -76 -5 -76 5 0 17
12 27 26 10 14 30 41 46 59 15 18 27 38 27 44 0 6 10 11 23 11 33 0 72 24 69
42 -3 22 23 41 48 33 25 -8 25 -17 1 -39 -16 -15 -18 -27 -14 -70 5 -52 5 -53
-28 -66 -19 -8 -38 -20 -42 -27 -4 -7 -20 -13 -35 -13 -32 0 -39 -5 -75 -48
-37 -45 -35 -68 6 -77 42 -10 56 -7 90 17 42 30 61 17 53 -35 -4 -23 -14 -55
-22 -71 -26 -54 -15 -72 24 -36 40 37 52 27 52 -44 0 -59 -3 -68 -38 -113 -72
-92 -73 -96 -46 -120 33 -29 34 -97 2 -131 l-23 -24 25 7 c19 4 31 1 44 -14
16 -18 18 -31 12 -100 -5 -60 -3 -80 6 -83 9 -3 13 -33 14 -99 1 -52 5 -113 9
-136 5 -30 2 -59 -10 -98 -18 -55 -18 -56 4 -78 24 -26 27 -64 9 -115 -11 -29
-10 -35 5 -47 15 -11 17 -32 17 -173 0 -88 -4 -172 -10 -187 -8 -20 -6 -32 6
-51 18 -26 18 -33 14 -247 -2 -95 0 -141 8 -149 7 -7 12 -22 12 -34 0 -23 -17
-34 -52 -34 -11 0 -35 -12 -53 -27 -18 -16 -56 -44 -85 -63 -28 -19 -68 -48
-88 -64 -20 -16 -56 -37 -78 -47 -23 -10 -47 -26 -54 -34 -7 -8 -18 -15 -24
-15 -6 0 -38 -20 -71 -45 -33 -25 -67 -45 -75 -45 -9 0 -25 -7 -37 -15 -18
-13 -26 -13 -42 -3 -18 11 -27 38 -46 136 -6 30 -39 61 -52 48 -3 -3 -6 -90
-7 -195 -1 -172 -6 -215 -21 -199 -12 12 -27 268 -30 512 -2 142 -6 269 -9
282 -11 41 -25 248 -19 277 4 20 11 27 29 27 19 0 24 -5 24 -27 4 -227 20
-371 40 -358 9 5 21 82 22 145 2 76 -11 441 -16 449 -3 5 -1 22 4 38 8 21 7
39 -3 68 -18 52 -5 111 34 149 16 15 29 35 29 42 0 8 9 14 20 14 10 0 25 10
31 23 21 38 77 103 103 116 23 13 86 101 86 121 0 5 13 18 30 30 16 11 46 41
66 66 36 44 36 45 18 65 -14 16 -18 36 -18 95 0 41 -4 74 -8 74 -4 0 -8 -4 -8
-9 0 -13 -45 -66 -117 -138 -35 -35 -63 -67 -63 -72 0 -5 -22 -31 -50 -57 -27
-26 -50 -52 -50 -57 0 -5 -8 -17 -18 -26 -9 -9 -35 -38 -56 -64 -21 -27 -48
-58 -60 -68 -18 -17 -19 -21 -6 -29 13 -8 12 -11 -4 -23 -17 -13 -18 -25 -13
-173 3 -88 2 -166 -2 -173 -5 -7 -17 -11 -27 -9 -25 4 -31 43 -44 273 -6 99
-13 205 -14 235 -2 30 -11 78 -19 105 l-16 50 -2 -135 c-1 -74 0 -139 1 -145
1 -5 6 -136 11 -290 13 -448 20 -578 30 -611 11 -35 4 -77 -19 -111 -13 -20
-12 -26 3 -49 14 -22 17 -49 15 -163 -1 -75 3 -217 9 -315 7 -99 10 -223 9
-275 -4 -114 -10 -119 -84 -66 -27 19 -56 38 -64 41 -8 3 -32 15 -52 25 -21
11 -50 22 -65 24 -15 3 -51 10 -80 16 -29 6 -59 9 -68 6 -17 -7 -20 -62 -5
-101 10 -26 43 -36 55 -16 10 16 51 12 68 -7 26 -30 42 -110 28 -148 -8 -24
-9 -40 0 -61 7 -20 8 -74 3 -174 -4 -80 -7 -156 -7 -170 5 -92 14 -193 18
-200 3 -5 1 -11 -5 -15 -5 -3 -10 3 -10 15 0 38 -64 140 -89 140 -6 0 -27 14
-46 32 -20 17 -57 37 -83 44 -26 8 -76 22 -112 32 -89 26 -250 21 -377 -11
l-92 -24 6 64 c4 41 1 78 -7 103 -10 31 -10 48 0 83 13 49 0 95 -23 80 -7 -4
-18 -8 -26 -10 -20 -3 -68 -63 -82 -101 -13 -39 0 -62 36 -62 35 0 59 -33 51
-72 -13 -70 -14 -78 -5 -84 16 -9 0 -23 -61 -53 -33 -17 -83 -48 -112 -70 -53
-40 -53 -40 -65 -18 -7 12 -13 47 -14 77 0 30 -4 78 -9 105 l-7 50 -2 -42 c-1
-45 -34 -139 -55 -161 -20 -21 -8 -62 17 -59 29 3 32 -23 8 -77 -28 -64 -45
-55 -75 38 -6 17 -8 16 -26 -7 -11 -14 -20 -34 -20 -44 0 -24 -73 -59 -145
-69 -27 -4 -121 -6 -208 -5 l-157 3 -47 -31 -46 -31 31 0 c37 0 52 -18 29 -35
-10 -7 -17 -18 -17 -25 0 -9 -12 -11 -47 -6 -69 11 -81 10 -159 -8 -88 -19
-114 -24 -137 -25 -36 -2 -5 -21 34 -21 41 0 65 -24 39 -40 -22 -13 -4 -37 34
-44 20 -4 36 -11 36 -16 0 -6 9 -10 20 -10 11 0 20 -6 20 -13 0 -15 -90 -36
-172 -40 -44 -2 -63 -8 -83 -27 -21 -20 -28 -22 -50 -12 -14 7 -48 12 -75 12
-39 0 -50 4 -50 16 0 32 20 54 50 54 24 0 38 11 80 67 58 77 62 106 15 111
-45 5 -55 26 -55 118 0 108 9 116 93 87 48 -17 64 -19 79 -10 19 11 19 22 14
222 -4 116 -7 219 -9 230 -3 26 32 31 72 11 16 -9 38 -16 48 -16 34 -1 59 -33
66 -85 4 -27 11 -52 15 -56 4 -4 33 12 65 37 32 24 55 44 50 44 -11 0 -33 58
-33 86 0 11 14 31 30 46 27 23 30 32 30 85 0 52 -4 62 -34 98 l-34 39 -66 -12
c-36 -7 -77 -10 -91 -6 -15 4 -34 0 -48 -8 -12 -8 -38 -18 -58 -22 -49 -9 -63
-27 -55 -71 6 -28 1 -46 -21 -88 -15 -28 -31 -53 -35 -55 -3 -2 -16 -12 -29
-23 -21 -18 -36 -24 -84 -31 -23 -4 -34 -38 -12 -38 25 0 77 -50 77 -73 0 -12
-19 -41 -42 -64 -40 -41 -43 -48 -45 -103 -1 -45 -8 -67 -26 -92 -19 -26 -23
-42 -20 -75 4 -36 0 -48 -27 -82 -30 -37 -32 -43 -26 -93 6 -45 4 -58 -13 -79
-22 -28 -79 -49 -134 -49 -43 0 -51 -10 -35 -45 14 -31 5 -43 -49 -62 -52 -17
-67 -16 -88 7 -13 14 -31 20 -62 20 -23 0 -43 -4 -43 -10 0 -5 4 -10 8 -10 5
0 14 -11 20 -26 11 -23 9 -28 -20 -55 -41 -36 -58 -37 -97 0 -26 24 -38 29
-65 24 -47 -7 -83 19 -98 71 -16 56 -22 61 -71 57 -50 -3 -58 -14 -51 -62 7
-43 -18 -89 -47 -89 -18 0 -18 -41 -18 -1363 0 -749 4 -1351 8 -1337 12 36 62
132 82 155 9 11 66 101 126 200 133 219 190 307 249 388 35 49 43 67 39 89 -8
37 9 65 52 86 20 9 41 26 47 37 6 11 22 38 36 60 15 22 53 90 85 150 32 61 67
122 77 137 24 35 30 112 8 114 -8 0 -21 2 -28 2 -23 3 -10 57 14 60 15 2 24
12 27 31 5 23 18 33 74 58 37 17 89 33 115 37 34 5 65 21 115 57 98 73 140 95
211 114 101 26 379 139 477 194 50 28 95 51 101 51 6 0 53 21 104 46 l92 46
-6 56 c-3 31 -5 73 -6 92 0 25 -3 31 -9 21 -5 -8 -7 -20 -4 -27 8 -21 -16 -25
-27 -4 -21 40 -19 306 4 405 2 11 5 32 5 48 1 21 6 27 23 27 21 0 21 0 2 -15
-19 -14 -19 -14 2 -15 18 0 22 -8 28 -50 9 -71 26 -73 27 -3 1 32 2 63 4 68 1
6 3 21 4 35 1 16 4 21 9 13 6 -10 12 -10 27 1 21 15 40 49 72 131 16 43 23 50
44 47 13 -1 42 -4 64 -6 78 -7 99 -16 125 -57 15 -25 24 -51 22 -70 -3 -25 0
-29 22 -29 16 0 27 -7 31 -21 4 -11 22 -27 41 -36 18 -9 36 -24 39 -33 3 -9
19 -29 35 -45 24 -23 32 -26 45 -15 12 10 15 10 15 0 0 -9 4 -9 13 -2 18 15
90 24 107 13 12 -8 12 -12 -3 -29 -9 -10 -17 -25 -17 -34 0 -19 -32 -48 -53
-48 -9 0 -22 8 -29 18 -20 28 -48 35 -69 16 -17 -15 -19 -15 -19 -1 0 21 -17
25 -63 16 -41 -7 -77 -2 -77 11 0 4 -44 11 -98 15 -88 6 -102 5 -138 -14 -35
-18 -40 -25 -36 -47 3 -19 0 -26 -16 -31 -17 -4 -18 -8 -9 -18 8 -8 18 -10 29
-4 9 5 32 9 51 9 50 0 710 -127 784 -151 63 -21 113 -57 113 -83 0 -8 8 -20
18 -26 12 -8 13 -13 5 -16 -7 -3 -21 -25 -32 -48 -26 -60 -80 -110 -134 -125
-25 -7 -51 -11 -59 -8 -7 3 -4 6 8 6 66 3 150 71 178 145 17 45 17 47 -1 79
-10 17 -34 39 -53 48 -37 17 -161 48 -298 73 -103 20 -113 20 -106 1 4 -8 1
-22 -6 -30 -10 -11 -8 -20 9 -41 12 -15 21 -36 20 -48 0 -15 -4 -11 -13 14 -7
19 -16 34 -20 34 -47 -10 -49 -12 -32 -30 12 -12 15 -25 11 -43 -4 -14 -10
-50 -14 -79 -4 -29 -13 -58 -19 -64 -7 -7 -12 -20 -12 -30 0 -20 -16 -25 -22
-6 -3 7 -7 5 -11 -6 -4 -10 -3 -15 3 -11 6 3 10 2 10 -4 0 -5 -4 -12 -10 -16
-5 -3 -6 -13 -3 -23 3 -9 -4 -5 -15 10 -12 14 -22 31 -22 36 0 38 -55 16 -58
-23 -3 -38 -6 -41 -53 -44 -23 -1 -55 -11 -70 -22 -15 -10 -31 -19 -36 -19 -6
0 -18 -9 -28 -20 -17 -19 -17 -20 0 -20 16 0 16 -2 1 -25 -25 -38 -20 -43 29
-34 65 12 182 15 192 5 4 -5 1 -11 -7 -14 -7 -3 -36 -28 -63 -56 -39 -40 -50
-47 -57 -36 -6 8 -10 10 -10 5 0 -6 -9 -16 -20 -23 -17 -11 -21 -10 -27 5 -3
10 -20 30 -37 44 -29 25 -31 26 -50 8 -24 -23 -37 -24 -29 -3 5 14 3 14 -18 2
-13 -7 -26 -16 -29 -20 -9 -12 -48 28 -66 68 -13 29 -18 34 -21 21 -3 -10 1
-32 7 -50 21 -59 38 -181 33 -231 -4 -35 -3 -47 6 -42 7 5 11 0 11 -13 0 -11
11 -82 25 -158 23 -124 29 -141 57 -171 30 -30 57 -44 43 -23 -3 5 -2 11 2 13
5 3 28 -17 52 -44 l43 -47 -63 24 c-35 14 -68 31 -74 38 -5 7 -20 26 -32 41
l-23 28 -112 -16 c-104 -15 -298 -22 -298 -11 0 9 168 491 204 585 57 148 78
192 88 178 10 -16 9 47 -1 82 -7 23 -8 22 -15 -14 -4 -21 -18 -49 -31 -62 -13
-13 -22 -24 -19 -24 7 0 -68 -104 -78 -108 -5 -2 -8 -10 -8 -18 0 -9 -4 -12
-10 -9 -5 3 -10 0 -10 -8 0 -8 -14 -38 -30 -68 -20 -35 -28 -44 -24 -27 8 36
-3 36 -17 1 -7 -20 -6 -28 3 -35 10 -6 10 -8 1 -8 -7 0 -13 -7 -13 -16 0 -8
-3 -13 -7 -11 -5 3 -15 -2 -22 -11 -13 -14 -13 -15 6 -10 15 4 20 2 16 -7 -2
-8 -32 -20 -66 -28 l-62 -15 55 4 c46 5 53 3 40 -8 -8 -7 -16 -20 -18 -28 -2
-8 -12 -24 -23 -36 -10 -11 -19 -28 -19 -37 0 -9 -9 -22 -19 -29 -11 -8 -23
-26 -26 -41 -4 -15 -11 -29 -15 -32 -8 -5 -61 -111 -98 -195 -8 -19 -19 -42
-23 -52 -11 -21 -50 -174 -57 -216 -4 -30 -7 -33 -32 -30 -22 3 -26 1 -22 -14
2 -10 -1 -18 -7 -18 -6 0 -11 8 -11 17 0 15 -4 13 -23 -7 -28 -30 -39 -58 -26
-62 11 -4 16 -30 24 -113 4 -49 4 -48 -25 33 -23 65 -73 181 -86 200 -1 2 -10
5 -20 6 -10 2 -23 11 -28 21 -6 11 -23 32 -37 48 l-26 29 0 -41 c0 -27 6 -46
18 -57 27 -25 23 -39 -6 -20 -13 9 -27 16 -30 16 -11 0 -4 -23 14 -47 11 -13
17 -31 14 -39 -3 -8 1 -14 9 -14 8 0 23 -10 34 -21 l19 -22 -30 7 c-16 4 -35
14 -41 21 -6 8 -14 12 -17 9 -3 -3 -50 13 -104 37 -54 23 -129 50 -168 61 -88
23 -219 33 -265 20 -30 -9 -19 -10 68 -11 137 -1 213 -21 360 -93 115 -57 169
-98 156 -119 -3 -5 5 -14 18 -20 13 -6 30 -20 37 -31 12 -19 11 -20 -6 -14
-141 57 -264 93 -263 77 1 -3 55 -33 121 -65 109 -53 120 -61 115 -82 -4 -14
-1 -24 9 -28 17 -6 21 -36 4 -36 -5 0 -29 5 -53 11 -24 6 -56 9 -72 7 -25 -3
-18 -8 59 -47 48 -24 90 -49 94 -54 3 -5 -24 -8 -65 -6 -39 2 -74 0 -78 -3 -4
-4 1 -19 11 -34 10 -16 13 -29 7 -33 -5 -3 -13 -21 -17 -40 -5 -21 -10 -29
-15 -21 -5 9 -14 6 -34 -11 -14 -12 -26 -26 -26 -31 0 -14 -33 -44 -67 -62
-18 -9 -33 -18 -33 -21 0 -2 25 -18 55 -35 30 -17 55 -33 55 -35 0 -2 -37 12
-81 32 -119 51 -289 64 -474 36 -58 -9 -18 -21 72 -22 146 -2 287 -30 360 -74
42 -24 38 -30 -12 -16 -34 10 -41 9 -52 -7 -12 -16 -10 -20 12 -32 14 -7 76
-26 138 -42 61 -16 137 -36 167 -44 30 -9 58 -16 61 -16 3 0 9 32 13 71 8 94
18 112 39 73 9 -16 16 -23 17 -16 0 7 -4 22 -10 32 -13 25 -4 45 26 58 32 15
74 -3 74 -32 -1 -25 -22 -56 -39 -56 -15 0 -14 -17 2 -27 16 -9 28 -38 32 -73
6 -58 20 -77 42 -58 10 8 13 6 13 -5 0 -20 56 -32 104 -23 19 4 56 2 83 -4 41
-10 350 -43 596 -65 42 -4 80 -11 83 -16 6 -11 113 42 136 68 19 20 14 32 -20
51 -20 11 -23 10 -32 -10 -5 -14 -9 -17 -10 -8 -4 52 3 387 10 445 9 70 9 70
6 -23 -2 -50 0 -92 5 -92 5 0 9 11 9 24 0 28 24 53 35 36 4 -7 2 -17 -4 -23
-6 -6 -11 -19 -11 -29 0 -12 -7 -18 -21 -18 -19 0 -21 -4 -15 -31 3 -17 6 -60
6 -95 0 -51 3 -64 15 -64 36 0 68 99 40 123 -6 5 -1 6 10 2 20 -8 54 -9 61 -3
1 2 5 17 8 33 l5 30 -19 -23 c-24 -28 -36 -28 -56 3 -13 20 -14 28 -4 40 6 8
15 14 18 13 26 -3 30 3 21 37 -6 19 -7 40 -4 45 3 6 2 10 -2 10 -5 0 -14 -9
-21 -20 -7 -12 -17 -18 -23 -15 -5 4 4 20 22 38 17 18 43 57 58 87 15 30 35
69 46 85 24 38 87 105 99 105 5 0 24 18 43 40 20 23 44 40 55 40 19 0 20 -4
15 -67 -3 -40 -14 -84 -26 -108 -12 -21 -21 -50 -21 -62 0 -13 -22 -69 -49
-126 -37 -78 -50 -118 -54 -167 -3 -36 -15 -84 -27 -107 -11 -23 -20 -47 -20
-52 0 -6 -12 -17 -27 -25 -16 -8 -23 -15 -17 -16 18 0 117 46 159 74 42 29
116 35 174 15 20 -7 50 -8 79 -3 26 4 39 9 30 11 -15 4 -15 7 2 36 11 18 24
66 30 107 6 41 17 116 26 165 9 50 13 103 10 119 -4 19 2 44 19 78 14 27 25
55 25 63 0 7 7 18 16 25 19 17 44 75 44 106 0 13 5 24 10 24 9 0 15 -164 15
-440 0 -103 2 -110 28 -110 23 0 63 150 44 169 -6 6 -4 16 8 27 9 10 15 27 13
39 -4 17 -1 21 11 18 25 -6 49 45 44 93 -5 41 16 140 24 117 3 -7 11 -13 19
-13 8 0 19 -10 24 -22 8 -17 9 -10 4 27 -4 28 -6 55 -5 60 9 69 15 86 27 81 7
-3 16 4 20 17 3 12 13 30 22 39 12 14 13 25 4 60 -17 66 -24 158 -12 158 5 0
10 -4 10 -10 0 -5 24 -10 54 -10 34 0 56 -5 60 -12 3 -7 3 3 0 23 -4 25 -1 45
11 62 21 33 12 86 -22 124 -13 15 -40 57 -60 93 -20 36 -45 77 -55 92 -10 14
-18 37 -18 50 0 13 -7 33 -15 44 -8 12 -11 25 -7 29 4 5 -1 5 -10 2 -12 -4
-18 -1 -18 7 0 13 18 14 75 1 l30 -6 -26 15 c-15 8 -55 19 -89 23 -53 7 -66
13 -84 36 -23 31 -36 134 -25 197 6 33 7 32 9 -15 l2 -50 10 49 c10 56 4 90
-13 66 -20 -29 -3 145 17 175 l18 28 46 -49 c48 -52 114 -99 128 -90 18 11
205 -14 236 -32 17 -10 75 -45 128 -77 55 -32 127 -66 165 -76 84 -24 97 -42
73 -103 -9 -24 -2 -32 80 -112 49 -48 98 -93 109 -100 10 -7 26 -31 34 -53 14
-33 42 -69 35 -44 -1 4 2 39 6 76 l8 68 71 -7 c41 -4 85 -15 102 -25 31 -19
44 -25 71 -34 8 -3 25 -26 37 -52 19 -42 22 -69 24 -228 4 -224 10 -242 111
-349 40 -44 101 -115 133 -158 61 -79 79 -93 79 -59 0 26 10 51 21 51 14 0 10
-56 -5 -69 -18 -15 -5 -44 66 -152 34 -52 64 -84 95 -102 24 -15 48 -25 52
-23 7 5 75 -119 85 -156 3 -10 20 -19 44 -23 21 -3 53 -15 70 -25 27 -17 32
-26 32 -60 0 -36 -3 -41 -32 -53 -31 -13 -34 -13 -47 12 -7 14 -25 39 -40 55
-31 34 -139 116 -153 116 -6 0 15 -17 45 -37 67 -46 125 -115 166 -197 32 -64
41 -70 16 -9 -18 43 -18 46 -4 37 19 -11 81 -23 95 -17 10 4 12 16 8 47 -4 22
-10 46 -15 51 -4 6 -4 26 0 45 5 28 12 35 31 37 14 0 28 1 33 2 4 1 -2 18 -13
38 -14 27 -17 40 -9 49 9 11 15 11 32 0 14 -9 29 -11 42 -6 14 6 15 9 5 9 -9
1 -27 9 -40 19 -32 22 -88 42 -121 42 -14 0 -34 9 -44 20 -23 26 -51 26 -65 0
-6 -11 -17 -20 -25 -20 -7 0 -16 -6 -18 -12 -4 -10 -8 -10 -15 0 -5 8 -13 14
-18 15 -5 1 -8 17 -8 35 1 33 -10 43 -20 17 -9 -24 -36 -6 -36 25 0 16 -7 62
-16 102 -9 40 -17 100 -19 133 -1 33 -7 97 -13 142 -5 46 -7 97 -3 114 3 17 2
69 -3 116 -7 61 -6 94 2 117 10 27 9 38 -3 63 -8 17 -18 72 -21 124 -3 52 -12
115 -20 141 -10 30 -14 82 -13 150 2 110 -13 251 -38 358 -10 40 -17 127 -19
229 -2 116 -7 173 -17 195 -21 44 -32 168 -18 195 10 17 7 28 -11 60 -22 38
-22 39 -4 98 16 54 17 63 3 84 -21 35 -31 203 -13 219 13 10 12 16 -4 43 -22
39 -38 147 -21 147 6 0 11 5 11 12 0 6 -3 8 -6 5 -4 -3 -16 5 -27 19 -15 19
-21 46 -25 101 -4 64 -2 78 15 102 l21 27 -24 27 c-19 22 -24 40 -24 82 0 30
5 65 11 79 9 20 8 32 -5 60 -19 39 -20 85 -6 175 9 53 8 67 -5 87 -8 13 -15
45 -15 71 0 26 -10 68 -21 93 -20 45 -21 51 -22 325 0 40 7 75 21 104 l20 44
-20 28 c-17 22 -20 37 -15 73 6 38 3 49 -14 65 -19 17 -20 27 -15 102 6 96 6
87 -1 234 -2 61 -6 153 -9 205 -8 211 -16 297 -31 345 -16 50 -18 100 -9 283
5 86 3 106 -10 120 -12 12 -15 32 -12 91 2 59 -1 86 -16 119 -11 23 -24 41
-30 39 -6 -2 -15 -33 -20 -70 -7 -53 -6 -77 7 -118 10 -28 17 -67 17 -87 0
-20 5 -85 12 -144 11 -103 11 -110 -9 -151 -17 -36 -20 -57 -17 -126 2 -46 7
-88 12 -95 17 -21 32 -111 30 -176 -1 -36 0 -108 2 -161 3 -64 -1 -106 -9
-127 -10 -25 -11 -35 -2 -46 7 -8 9 -25 6 -38 -4 -16 1 -30 18 -48 l23 -24
-20 -58 -19 -57 21 -67 c12 -37 19 -72 15 -77 -4 -6 -8 -85 -9 -176 -6 -362
-9 -460 -16 -466 -4 -4 -20 -1 -36 6 -28 12 -30 16 -36 101 -6 81 -5 92 15
119 20 29 20 31 4 49 -15 16 -16 30 -10 85 5 51 4 65 -7 65 -22 0 -35 -14 -49
-52 -7 -21 -16 -38 -20 -38 -4 0 -9 -9 -12 -20 -7 -27 -21 -25 -36 6 -10 22
-8 31 21 70 17 24 39 44 48 44 22 0 65 46 51 55 -6 3 -21 -1 -33 -9 -12 -9
-37 -16 -55 -16 -32 0 -33 1 -33 41 0 31 6 47 29 70 16 16 39 29 52 29 32 0
48 28 49 87 0 67 -7 83 -36 83 -31 0 -32 31 -3 68 49 65 70 105 60 115 -6 6
-11 19 -11 28 0 9 -7 22 -15 29 -8 7 -15 26 -15 43 0 38 -20 107 -32 107 -5 0
-4 -9 2 -19 13 -25 13 -31 -1 -31 -6 0 -25 -11 -43 -25 -30 -23 -34 -24 -55
-8 -20 13 -23 22 -19 57 3 23 13 58 22 78 11 23 16 48 12 65 -7 35 12 73 42
84 17 7 22 5 22 -9 0 -9 4 -23 9 -30 7 -11 9 -10 14 3 5 10 3 14 -4 9 -16 -10
-1 115 17 143 20 31 18 40 -13 55 -25 12 -28 19 -25 56 1 23 -1 42 -5 42 -21
-1 -28 -22 -30 -92 -2 -101 -21 -138 -70 -138 -22 0 -23 3 -23 86 0 47 5 95
11 106 6 11 11 59 10 105 -1 70 -5 89 -24 115 -23 32 -24 35 -30 313 -1 78 -7
128 -16 144 -8 15 -11 39 -8 64 5 33 1 46 -19 70 -13 16 -24 34 -24 40 0 31
31 123 45 133 25 19 17 33 -22 36 -39 3 -47 16 -32 48 4 8 9 31 12 50 2 20 12
50 21 67 9 18 16 39 16 48 0 25 30 65 61 81 16 8 39 25 51 39 21 23 26 24 44
11 15 -11 25 -39 39 -110 15 -78 21 -94 32 -84 20 21 17 135 -6 207 -6 19 -8
37 -6 42 3 4 8 27 11 51 l5 43 -20 -23 c-11 -13 -29 -35 -39 -49 -10 -14 -30
-27 -43 -28 -38 -4 -39 -4 -39 -17 0 -13 -68 -78 -81 -78 -14 0 -11 40 7 87
11 28 28 49 50 62 61 36 32 65 -44 44 -19 -5 -23 -11 -19 -32 5 -26 -12 -61
-30 -61 -5 0 -17 8 -26 18 -15 16 -14 21 13 63 15 26 35 49 43 52 8 3 18 19
22 36 4 17 11 31 16 31 20 0 7 47 -21 77 -31 33 -38 53 -19 53 7 0 9 15 7 43
-4 29 0 51 13 73 18 29 16 74 -2 74 -5 0 -9 23 -9 51 l0 50 -30 -21 c-22 -16
-30 -29 -30 -51 0 -31 -19 -59 -41 -59 -7 0 -9 -3 -6 -6 3 -4 0 -16 -8 -28
-17 -23 -20 -56 -6 -56 5 0 11 9 14 20 3 11 11 20 17 20 7 0 10 -7 6 -16 -3
-9 -6 -30 -6 -47 0 -22 -7 -36 -22 -46 -19 -12 -24 -10 -50 18 -16 17 -34 32
-41 32 -7 1 1 4 17 8 32 7 38 24 10 30 -10 2 -26 14 -37 27 l-19 24 -18 -22
c-15 -19 -20 -20 -34 -9 -23 19 -20 47 7 68 13 10 29 28 36 41 11 20 10 22
-19 22 -28 0 -30 3 -30 35 0 24 6 37 20 45 16 8 20 21 20 59 0 38 17 96 36
119 1 2 16 -4 33 -14 33 -19 41 -48 16 -58 -24 -9 -17 -33 10 -40 14 -4 35
-18 47 -31 16 -18 28 -23 42 -19 29 9 106 95 106 118 0 11 7 28 17 38 31 34
93 154 93 179 0 22 -50 79 -70 79 -13 0 -13 1 0 10 12 8 12 10 -5 10 -11 0
-26 9 -33 20 -11 18 -20 20 -75 16 -52 -4 -62 -7 -65 -24 -4 -26 44 -58 63
-42 15 12 55 -2 55 -20 0 -5 10 -18 22 -29 18 -18 19 -21 5 -27 -11 -4 -14
-12 -8 -26 13 -35 0 -67 -37 -98 -63 -52 -68 -34 -19 66 l32 66 -30 24 c-20
15 -37 21 -52 18 -14 -4 -23 -2 -23 6 0 6 -4 9 -10 5 -9 -6 -27 10 -63 54 -14
17 -24 21 -50 16 -25 -5 -37 -2 -51 14 -18 20 -18 21 8 31 29 11 27 30 -4 30
-12 0 -26 13 -35 30 -9 17 -23 30 -35 30 -10 0 -22 5 -26 11 -4 7 -20 9 -39 6
-20 -3 -41 0 -52 8 -15 11 -21 11 -35 -2 -20 -18 -48 -11 -48 12 0 8 -9 15
-19 15 -24 0 -37 18 -24 31 6 6 19 6 35 0 21 -8 29 -6 44 10 16 18 16 19 -2
19 -11 0 -25 5 -31 11 -6 6 -40 14 -76 16 -59 5 -66 8 -72 30 -5 21 -10 24
-33 19 -47 -11 -55 -11 -59 1 -3 7 6 17 20 22 30 12 42 50 22 70 -13 13 -18
12 -42 -11 -39 -36 -86 -50 -109 -33 -17 12 -16 15 14 41 48 43 42 51 -23 34z
m265 -227 c11 -11 -53 -53 -81 -53 -36 0 -37 10 -2 44 21 21 33 26 52 21 14
-4 28 -9 31 -12z m205 -107 c35 -15 44 -29 24 -41 -6 -4 -13 2 -16 14 -3 12
-13 21 -24 21 -10 0 -21 5 -24 10 -8 13 -1 13 40 -4z m-909 -7 c3 -6 1 -16 -4
-21 -13 -13 -45 8 -36 23 7 12 31 11 40 -2z m124 -99 c0 -5 -7 -10 -15 -10 -8
0 -15 5 -15 10 0 6 7 10 15 10 8 0 15 -4 15 -10z m840 -44 c0 -2 -3 -11 -6
-20 -9 -23 -34 -20 -34 4 0 13 7 20 20 20 11 0 20 -2 20 -4z m-127 -40 c7 -19
-1 -26 -30 -26 -22 0 -31 19 -16 33 11 12 41 7 46 -7z m379 -28 c9 -25 -2 -39
-18 -23 -9 8 -12 19 -9 25 8 14 22 13 27 -2z m-38 -73 c4 -14 18 -31 31 -37
14 -6 25 -19 25 -29 0 -10 5 -21 10 -24 8 -5 7 -11 -1 -21 -11 -13 -10 -29 6
-66 5 -14 2 -18 -15 -18 -11 0 -19 3 -17 8 2 4 -5 25 -17 47 -16 30 -29 41
-51 45 -17 3 -43 14 -58 24 l-28 19 38 37 c46 45 69 49 77 15z m-544 -959 c0
-23 -16 -36 -46 -36 -20 0 -17 37 4 49 28 17 42 13 42 -13z m276 -773 c-6 -44
-17 -63 -36 -63 -21 0 -17 29 8 68 20 30 32 28 28 -5z m-376 -809 c0 -8 -4
-12 -10 -9 -5 3 -10 10 -10 16 0 5 5 9 10 9 6 0 10 -7 10 -16z m999 -465 c-23
-17 -79 -31 -89 -22 -10 10 20 39 61 59 l44 22 3 -21 c3 -13 -5 -27 -19 -38z
m-99 -234 c-13 -14 -26 -23 -28 -20 -3 3 5 16 18 30 13 14 26 23 28 20 3 -3
-5 -16 -18 -30z m-101 -327 c-1 -40 2 -99 6 -130 6 -48 5 -58 -7 -58 -19 0
-60 -35 -51 -44 3 -3 19 -6 34 -6 15 0 31 -6 35 -12 13 -20 4 -170 -12 -202
-18 -36 -18 -50 0 -65 12 -10 12 -20 1 -61 -11 -42 -11 -51 2 -61 34 -29 41
-61 33 -158 -5 -57 -4 -104 1 -120 6 -13 9 -52 8 -86 -1 -35 3 -69 11 -81 15
-24 3 -115 -16 -121 -14 -5 -44 61 -44 96 0 26 -4 29 -41 35 -22 4 -56 4 -75
0 -22 -4 -34 -2 -34 5 0 21 -18 11 -24 -14 -5 -19 1 -33 25 -60 18 -19 46 -58
64 -87 26 -45 39 -55 85 -73 l55 -21 3 -48 c2 -34 -2 -53 -14 -67 -10 -12 -14
-27 -10 -42 5 -20 11 -23 31 -19 33 6 55 -13 55 -48 0 -31 -32 -65 -54 -57 -9
4 -41 -3 -72 -13 -32 -11 -71 -20 -88 -20 -51 0 -180 -28 -184 -39 -2 -6 -11
-11 -20 -11 -19 0 -72 118 -72 160 -1 14 -7 36 -15 50 -8 14 -14 34 -15 45 0
11 -8 42 -19 70 -36 96 -45 125 -77 240 -9 33 -25 73 -37 89 -11 15 -28 59
-38 97 -10 38 -25 82 -33 97 -66 119 -87 217 -81 387 l5 130 47 42 c27 23 51
43 55 43 4 0 29 13 55 29 27 16 63 32 80 36 18 3 36 12 40 19 5 7 31 23 58 36
66 31 120 66 172 110 23 20 60 42 83 50 22 7 43 17 46 22 3 4 14 8 25 8 19 0
20 -6 18 -72z m131 -310 c-1 -49 -2 -52 -16 -33 -8 11 -12 26 -9 33 3 8 5 22
5 33 0 10 5 19 10 19 6 0 10 -24 10 -52z m-890 10 c0 -13 6 -44 14 -69 8 -25
16 -65 17 -89 3 -37 1 -45 -15 -48 -10 -2 -23 1 -29 7 -10 10 -18 197 -10 214
9 15 23 6 23 -15z m1088 -145 c6 -10 15 -73 22 -141 11 -110 10 -125 -4 -147
-15 -23 -15 -28 -1 -47 10 -15 15 -46 15 -95 0 -70 -11 -96 -31 -76 -15 15
-37 122 -38 183 -3 148 -7 209 -19 248 -11 38 -11 47 3 68 18 28 41 31 53 7z
m-129 -190 c7 -14 3 -21 -22 -36 -44 -27 -64 -29 -70 -5 -4 15 -2 18 10 14 9
-4 23 4 35 19 23 29 34 31 47 8z m-909 -238 c0 -16 -6 -25 -15 -25 -15 0 -21
31 -8 43 13 14 23 6 23 -18z m1079 -133 c5 -10 9 -69 8 -132 0 -70 4 -130 12
-152 17 -51 0 -108 -33 -108 -13 0 -31 -12 -45 -31 -17 -23 -26 -28 -34 -20
-9 9 -8 17 1 31 6 11 12 41 12 68 0 36 6 54 22 71 30 33 35 107 13 182 -14 47
-16 64 -7 84 14 29 37 33 51 7z m-1092 -39 c-3 -10 -5 -2 -5 17 0 19 2 27 5
18 2 -10 2 -26 0 -35z m973 -16 c0 -7 -6 -21 -13 -31 -13 -17 -14 -17 -30 -1
-18 17 -24 40 -8 30 5 -3 12 -1 16 5 9 15 35 12 35 -3z m-1175 -207 c0 -16 -6
-26 -19 -28 -11 -2 -16 0 -12 6 3 6 2 13 -3 17 -15 9 0 36 18 33 10 -2 16 -13
16 -28z m256 -27 c5 -14 7 -33 4 -40 -3 -8 0 -24 7 -36 7 -14 11 -58 10 -114
-2 -80 0 -95 17 -112 18 -18 24 -19 73 -8 56 13 119 9 125 -8 5 -16 -85 -47
-167 -56 -31 -4 -164 4 -143 8 15 3 25 14 29 31 3 15 8 34 10 43 3 9 -1 28 -7
43 -10 21 -9 33 6 65 9 22 14 44 11 50 -4 6 -11 35 -15 63 -13 81 16 133 40
71z m-2131 -3 c0 -5 -5 -10 -11 -10 -5 0 -7 5 -4 10 3 6 8 10 11 10 2 0 4 -4
4 -10z m181 -22 c-5 -15 -18 -24 -37 -26 l-29 -4 35 25 c19 14 36 26 37 26 1
1 -1 -9 -6 -21z m259 12 c0 -5 -7 -10 -15 -10 -8 0 -15 5 -15 10 0 6 7 10 15
10 8 0 15 -4 15 -10z m-476 -12 c-4 -7 -16 -25 -26 -40 -14 -21 -17 -40 -14
-99 2 -43 8 -75 15 -77 6 -2 11 3 11 11 0 24 141 137 172 137 15 0 30 5 33 10
9 15 25 2 25 -21 0 -14 -7 -19 -27 -20 -21 0 -39 -13 -68 -48 -22 -26 -57 -58
-78 -71 -44 -29 -117 -38 -117 -15 0 8 -7 15 -15 15 -12 0 -15 14 -15 65 0 60
2 66 24 75 16 6 23 15 20 27 -3 12 7 25 29 40 39 26 40 26 31 11z m426 -48 c0
-5 -4 -10 -10 -10 -5 0 -10 5 -10 10 0 6 5 10 10 10 6 0 10 -4 10 -10z m-1092
-42 c2 -20 -6 -36 -33 -63 -34 -32 -75 -47 -75 -26 0 4 11 20 25 35 14 15 25
35 25 45 0 45 53 53 58 9z m1096 7 c3 -8 1 -15 -4 -15 -6 0 -10 7 -10 15 0 8
2 15 4 15 2 0 6 -7 10 -15z m2796 -75 c-6 -21 -4 -32 6 -41 22 -18 18 -59 -5
-59 -22 0 -28 15 -30 79 -1 26 3 47 11 52 20 13 27 1 18 -31z m-2966 -25 c23
-35 21 -116 -4 -148 -11 -14 -20 -28 -20 -31 0 -12 -71 -116 -79 -116 -5 0
-14 6 -20 14 -7 8 -27 18 -44 22 -18 3 -38 11 -45 17 -8 6 -20 7 -35 0 -23
-10 -57 -7 -57 5 0 4 4 14 9 21 6 9 6 22 -1 34 -8 16 -2 26 39 64 26 25 68 56
93 69 25 13 59 35 75 48 38 32 68 33 89 1z m129 -13 c35 -33 35 -65 1 -81 -22
-10 -24 -14 -13 -27 8 -9 15 -34 16 -56 2 -33 -1 -40 -23 -48 -14 -6 -27 -10
-30 -10 -10 0 -3 33 11 46 22 22 18 34 -9 34 -13 0 -26 6 -29 14 -10 27 -20
135 -13 152 9 22 52 11 89 -24z m77 -5 c0 -32 -4 -44 -15 -44 -17 0 -20 13 -5
22 15 9 12 25 -4 25 -21 0 -31 21 -15 31 29 18 39 9 39 -34z m1488 10 c14 -16
-16 -66 -35 -60 -15 5 -17 -13 -3 -22 24 -15 7 -85 -21 -85 -14 0 -19 7 -19
28 0 15 5 33 10 38 6 6 12 29 14 52 3 23 7 46 11 52 9 14 30 13 43 -3z m-2058
-45 c21 -17 21 -18 3 -39 -10 -12 -29 -24 -42 -28 -21 -6 -23 -5 -16 11 5 11
8 31 7 47 -1 32 16 35 48 9z m-212 -35 c8 -9 6 -21 -8 -42 -10 -16 -17 -32
-15 -36 9 -14 -22 -28 -71 -30 -75 -4 -102 22 -45 42 19 7 31 19 33 32 5 33
86 59 106 34z m3557 -80 c42 -15 45 -24 24 -79 -13 -33 -24 -37 -114 -45 -67
-5 -73 -4 -88 17 -18 25 -13 76 9 99 13 15 75 29 109 25 11 -1 38 -9 60 -17z
m-3985 -32 c-13 -16 -40 -9 -40 9 0 21 12 26 32 15 15 -8 17 -13 8 -24z m-372
9 c44 -12 20 -44 -33 -44 -27 0 -39 14 -31 35 6 16 27 19 64 9z m507 -15 c7
-10 -22 -38 -40 -39 -20 0 -38 18 -32 34 7 18 62 22 72 5z m3199 -49 c2 -8 7
-36 11 -61 5 -37 3 -48 -10 -53 -22 -8 -45 49 -45 109 0 43 1 45 20 33 11 -7
22 -20 24 -28z m-721 -15 c-3 -9 -8 -14 -10 -11 -3 3 -2 9 2 15 9 16 15 13 8
-4z m-2423 -15 c0 -16 -26 -40 -44 -40 -10 0 -27 40 -21 50 3 6 19 10 36 10
22 0 29 -5 29 -20z m445 10 c3 -5 -1 -10 -10 -10 -9 0 -13 5 -10 10 3 6 8 10
10 10 2 0 7 -4 10 -10z m145 -4 c0 -18 -15 -36 -31 -36 -12 0 -19 7 -19 20 0
15 7 20 25 20 14 0 25 -2 25 -4z m-434 -41 c31 -75 0 -104 -50 -44 -39 46 -35
79 11 79 18 0 28 -9 39 -35z m1369 25 c3 -5 1 -10 -4 -10 -6 0 -11 5 -11 10 0
6 2 10 4 10 3 0 8 -4 11 -10z m352 4 c-3 -3 -12 -4 -19 -1 -8 3 -5 6 6 6 11 1
17 -2 13 -5z m-654 -31 c-7 -2 -19 -2 -25 0 -7 3 -2 5 12 5 14 0 19 -2 13 -5z
m697 3 c0 -3 -4 -8 -10 -11 -5 -3 -10 -1 -10 4 0 6 5 11 10 11 6 0 10 -2 10
-4z m-1190 -16 c0 -5 -4 -10 -10 -10 -5 0 -10 5 -10 10 0 6 5 10 10 10 6 0 10
-4 10 -10z m1848 -32 c7 -7 12 -15 12 -19 0 -14 -59 -29 -133 -33 -67 -4 -79
-2 -87 14 -13 25 -13 31 3 29 6 -1 19 0 27 4 36 14 48 15 106 16 34 1 65 -4
72 -11z m916 -5 c20 -15 22 -22 15 -58 -4 -23 -6 -63 -4 -91 2 -27 -1 -56 -5
-65 -6 -10 -1 -32 16 -64 19 -39 23 -58 18 -95 -5 -34 -2 -56 11 -80 12 -24
18 -62 20 -124 1 -50 5 -121 10 -158 l8 -68 -26 0 c-14 0 -37 -4 -51 -10 -20
-7 -37 -5 -72 10 -25 11 -65 20 -88 20 -64 0 -86 21 -86 80 0 27 -9 72 -20
100 -12 30 -23 89 -27 141 -5 81 -9 92 -38 127 -32 36 -32 39 -22 88 8 40 7
57 -4 80 -21 42 -13 60 31 78 36 14 39 18 30 40 -5 14 -6 28 -1 30 11 7 72 15
165 20 43 3 81 8 84 11 8 8 11 7 36 -12z m346 -12 c5 -10 8 -51 6 -92 -2 -71
-3 -74 -27 -74 -22 0 -24 5 -27 47 -4 60 -36 90 -85 81 -18 -3 -37 -10 -44
-15 -16 -13 -53 8 -53 30 0 32 17 37 120 39 86 1 102 -2 110 -16z m-967 -21
c24 -19 52 -21 102 -5 11 3 29 -1 40 -9 18 -14 13 -16 -65 -17 -47 -1 -92 -2
-100 -1 -8 0 -52 2 -98 3 -71 1 -81 4 -70 15 8 8 34 17 58 20 25 3 47 8 49 10
12 11 61 2 84 -16z m-2983 -4 c0 -22 -29 -41 -42 -28 -8 8 -8 15 2 27 16 19
40 20 40 1z m-697 -18 c37 -27 48 -39 41 -50 -9 -15 -33 -8 -59 16 -15 14 -32
27 -38 29 -12 4 -1 27 14 27 5 0 24 -10 42 -22z m1523 -44 c-14 -10 -23 -11
-30 -3 -8 7 -5 15 8 25 14 10 23 11 30 3 8 -7 5 -15 -8 -25z m-506 -4 c0 -11
-4 -20 -10 -20 -5 0 -10 9 -10 20 0 11 5 20 10 20 6 0 10 -9 10 -20z m-1180
-15 c0 -9 -9 -15 -25 -15 -16 0 -25 6 -25 15 0 9 9 15 25 15 16 0 25 -6 25
-15z m3530 1 c0 -18 -66 -76 -85 -76 -24 0 -17 30 13 60 29 30 72 39 72 16z
m-2785 -32 c-19 -9 -39 -12 -55 -8 l-25 7 30 7 c17 4 41 8 55 9 24 1 24 0 -5
-15z m525 6 c0 -5 -6 -10 -14 -10 -8 0 -18 5 -21 10 -3 6 3 10 14 10 12 0 21
-4 21 -10z m2720 -19 c5 -11 22 -21 37 -23 17 -2 32 -12 40 -28 15 -31 2 -48
-40 -52 -27 -3 -31 -7 -29 -27 4 -25 -27 -61 -52 -61 -8 0 -17 13 -21 30 -4
16 -17 38 -31 49 -13 10 -25 29 -26 42 -3 20 1 24 22 22 18 -2 32 7 50 32 29
40 36 42 50 16z m-1085 -11 c-3 -5 -12 -10 -18 -10 -7 0 -6 4 3 10 19 12 23
12 15 0z m-2255 -9 c0 -13 -10 -18 -42 -22 -33 -5 -38 14 -6 23 35 9 48 9 48
-1z m768 -53 c-4 -27 -28 -36 -28 -10 0 20 8 32 22 32 5 0 8 -10 6 -22z m3400
-20 c17 -17 16 -141 0 -136 -7 3 -14 13 -16 24 -1 10 -8 36 -14 56 -16 54 1
85 30 56z m-1060 -61 c2 -20 -1 -37 -6 -37 -13 0 -29 42 -24 63 6 30 27 13 30
-26z m1075 -114 c3 -5 8 -55 11 -113 4 -68 3 -98 -3 -84 -5 12 -14 25 -20 29
-6 3 -11 26 -11 50 0 24 -4 47 -10 50 -5 3 -10 16 -10 29 0 32 31 59 43 39z
m-1064 -12 c15 -10 6 -51 -12 -51 -28 1 -39 17 -28 39 13 23 19 25 40 12z
m145 -11 c33 -20 34 -22 24 -58 -15 -55 -26 -61 -54 -29 -23 27 -33 85 -17
100 9 9 7 10 47 -13z m136 -90 c0 -5 -4 -10 -10 -10 -5 0 -10 5 -10 10 0 6 5
10 10 10 6 0 10 -4 10 -10z m-890 -85 c-7 -8 -19 -15 -27 -15 -10 0 -7 8 9 31
18 24 24 27 26 14 2 -9 -2 -22 -8 -30z m1715 -92 c17 -40 17 -114 1 -125 -23
-16 -36 15 -36 88 0 82 11 94 35 37z m-2481 -59 c18 -7 22 -34 5 -34 -5 0 -8
-4 -5 -9 3 -5 -1 -11 -9 -15 -9 -3 -15 0 -15 8 0 9 -8 12 -25 8 -35 -6 -33 21
3 35 15 6 28 11 29 12 1 1 8 -2 17 -5z m2108 -131 c22 -20 23 -42 2 -72 l-16
-23 -25 43 c-13 23 -22 48 -19 56 7 18 36 16 58 -4z m-3853 -199 c2 -2 -2 -10
-8 -18 -7 -8 -11 -22 -9 -32 2 -9 -3 -19 -9 -21 -7 -3 -13 0 -13 6 0 6 -9 11
-20 11 -13 0 -20 -7 -20 -19 0 -10 -8 -29 -18 -41 -14 -18 -25 -22 -45 -16
-36 9 -34 30 5 65 27 24 30 31 20 44 -11 13 -10 17 5 26 15 8 100 5 112 -5z
m2494 -118 c-3 -4 -1 -11 4 -15 8 -5 63 -185 63 -205 0 -5 -6 -4 -12 2 -7 5
-29 15 -48 20 -58 17 -141 50 -165 66 -12 8 -49 24 -81 36 l-59 21 45 -7 c25
-3 58 -12 74 -20 24 -12 26 -12 16 1 -9 11 -8 19 7 39 10 14 21 26 26 26 4 0
7 8 7 18 0 10 9 24 20 32 11 8 20 22 20 32 0 10 5 18 10 18 6 0 10 -4 10 -10
0 -5 9 -10 19 -10 12 0 21 -9 24 -22 3 -13 3 4 1 37 l-4 60 14 -55 c8 -30 12
-59 9 -64z m-2663 -46 c0 -11 -7 -23 -15 -27 -21 -8 -28 1 -20 26 8 27 35 27
35 1z m2313 -47 c-8 -23 -33 -60 -33 -50 0 11 29 67 35 67 2 0 2 -8 -2 -17z
m-2616 -69 c9 -23 -11 -38 -26 -20 -13 16 -7 36 10 36 5 0 12 -7 16 -16z
m2566 -20 c-9 -15 -19 -21 -21 -15 -4 13 16 41 29 41 5 0 2 -12 -8 -26z m2185
-26 c-2 -13 -7 -23 -13 -23 -5 0 -11 10 -13 23 -2 15 2 22 13 22 11 0 15 -7
13 -22z m-2288 -8 c0 -5 -5 -10 -11 -10 -5 0 -7 5 -4 10 3 6 8 10 11 10 2 0 4
-4 4 -10z m75 -19 c-3 -10 -6 -44 -6 -74 -1 -64 -9 -70 -112 -87 -34 -5 -90
-19 -124 -29 -35 -11 -63 -15 -63 -10 0 5 10 11 23 14 12 4 38 27 57 53 53 71
112 132 127 132 7 0 13 -10 13 -23 0 -32 7 -37 35 -23 15 6 25 20 25 32 0 22
8 34 22 34 5 0 7 -9 3 -19z m-935 -76 c0 -17 -39 -60 -47 -52 -6 7 29 67 39
67 4 0 8 -7 8 -15z m438 -97 c9 -13 27 -18 58 -18 38 0 44 -3 44 -21 0 -12
-16 -40 -36 -62 -36 -39 -37 -41 -31 -105 4 -36 11 -70 17 -76 14 -14 13 -43
-1 -48 -9 -3 -9 -10 -2 -23 20 -38 24 -128 8 -179 -11 -35 -15 -95 -15 -213 0
-91 -4 -163 -9 -163 -5 0 -14 30 -19 68 -6 37 -15 101 -21 142 -6 41 -12 168
-12 281 0 190 -3 213 -25 285 -29 97 -30 114 -5 107 29 -7 36 16 12 41 -12 12
-21 26 -21 31 0 10 39 -22 58 -47z m119 -405 c-2 -27 -3 -5 -3 47 0 52 1 74 3
48 2 -27 2 -69 0 -95z m487 -176 c-3 -15 -11 -26 -17 -24 -15 5 -22 87 -8 87
6 0 11 12 12 28 1 19 4 14 10 -18 5 -25 6 -58 3 -73z m-1610 -34 c-4 -16 -10
-33 -15 -39 -5 -5 -7 -23 -6 -40 2 -23 -2 -28 -15 -26 -13 2 -18 -4 -18 -19 0
-17 -3 -19 -14 -10 -14 12 -13 14 47 129 21 39 30 41 21 5z m4141 -3 c3 -5 2
-10 -4 -10 -5 0 -13 5 -16 10 -3 6 -2 10 4 10 5 0 13 -4 16 -10z"/>
<path d="M4134 5686 c-7 -31 2 -48 24 -43 10 2 30 -3 46 -11 22 -11 34 -11 57
-2 31 13 33 18 21 38 -7 10 -14 8 -33 -7 -28 -22 -44 -16 -63 20 -16 34 -44
36 -52 5z"/>
<path d="M4365 5080 c-3 -5 -1 -10 4 -10 6 0 11 5 11 10 0 6 -2 10 -4 10 -3 0
-8 -4 -11 -10z"/>
<path d="M4242 5055 c-18 -8 -31 -19 -27 -25 8 -12 45 -13 45 -1 0 5 9 11 21
14 12 3 18 10 14 16 -8 14 -13 13 -53 -4z"/>
<path d="M4140 4890 c0 -11 5 -20 10 -20 6 0 10 9 10 20 0 11 -4 20 -10 20 -5
0 -10 -9 -10 -20z"/>
<path d="M4160 4805 c0 -17 2 -18 24 -9 23 9 20 24 -4 24 -11 0 -20 -7 -20
-15z"/>
<path d="M4512 3670 c7 -11 16 -20 20 -20 5 0 8 9 8 20 0 13 -7 20 -20 20 -18
0 -19 -2 -8 -20z"/>
<path d="M4525 3510 c3 -5 13 -10 21 -10 8 0 14 5 14 10 0 6 -9 10 -21 10 -11
0 -17 -4 -14 -10z"/>
<path d="M2357 2163 c-4 -3 -7 -11 -7 -17 0 -6 5 -5 12 2 6 6 9 14 7 17 -3 3
-9 2 -12 -2z"/>
<path d="M2908 10126 c-34 -43 -35 -54 -3 -85 24 -22 28 -22 77 -11 29 7 69
17 88 23 37 12 80 44 80 60 0 12 -66 0 -102 -19 -39 -20 -55 -17 -62 10 -6 24
-31 56 -44 56 -4 0 -19 -16 -34 -34z"/>
<path d="M3535 10042 c-16 -11 -39 -61 -32 -68 13 -13 57 26 57 51 0 26 -7 30
-25 17z"/>
<path d="M5060 10032 c-21 -7 -33 -21 -63 -72 -14 -25 -35 -50 -46 -57 -11 -7
-27 -27 -35 -45 -9 -18 -27 -45 -41 -60 -14 -15 -25 -32 -25 -38 0 -5 -9 -10
-20 -10 -23 0 -60 29 -60 46 0 7 -7 15 -15 18 -14 5 -35 -27 -35 -55 0 -20 41
-49 70 -49 26 0 30 -4 31 -27 1 -16 0 -34 -1 -42 -2 -17 31 -81 42 -81 14 0
38 47 32 64 -3 9 -15 16 -25 16 -24 0 -24 1 1 55 20 44 62 85 86 85 8 0 15 19
20 48 8 55 24 89 54 117 24 22 53 72 48 84 -2 4 -10 6 -18 3z"/>
<path d="M5141 9979 c-17 -48 -13 -57 9 -24 21 32 26 55 11 55 -5 0 -14 -14
-20 -31z"/>
<path d="M4246 9952 c-7 -12 64 -83 99 -97 21 -9 42 -11 61 -6 24 7 29 13 27
36 -2 27 -33 72 -33 48 0 -15 -60 -6 -80 12 -17 16 -65 21 -74 7z"/>
<path d="M5825 9827 c-39 -50 -69 -95 -67 -99 1 -5 -4 -8 -11 -8 -16 0 -37
-55 -37 -98 0 -36 -14 -47 -54 -43 -15 1 -26 -1 -23 -6 9 -14 -25 -52 -63 -71
-19 -9 -39 -27 -45 -38 -18 -37 -36 -53 -62 -56 -40 -5 -51 -31 -29 -69 13
-21 20 -58 23 -118 2 -47 7 -93 10 -101 4 -8 5 -36 4 -62 -3 -48 12 -66 24
-28 3 10 19 30 34 43 22 18 25 25 15 35 -8 8 -15 8 -19 2 -15 -25 -26 7 -24
71 2 55 6 72 20 79 11 6 20 28 24 62 7 47 14 60 66 113 33 32 59 65 59 72 0
23 20 24 50 2 16 -13 32 -31 36 -41 3 -10 13 -19 22 -19 9 -1 4 -4 -13 -8 -27
-6 -30 -10 -33 -51 -4 -58 15 -75 62 -55 82 34 151 135 140 205 -4 22 -10 37
-15 34 -16 -9 -22 27 -9 51 8 14 10 39 7 61 -8 47 -27 69 -27 31 0 -15 -5 -27
-11 -27 -5 0 -7 6 -3 13 6 9 4 9 -8 -1 -13 -10 -17 -10 -22 4 -4 11 1 22 14
31 11 8 20 22 20 31 0 14 2 15 10 2 7 -11 11 -9 20 14 10 28 4 122 -9 131 -4
2 -38 -38 -76 -88z m0 -252 c0 -44 -2 -50 -20 -47 -28 5 -36 22 -29 57 9 41
13 47 32 43 13 -3 17 -15 17 -53z"/>
<path d="M5306 9764 c-9 -22 -8 -24 9 -18 8 4 15 12 15 20 0 19 -16 18 -24 -2z"/>
<path d="M4656 9661 c-3 -5 1 -12 10 -15 20 -8 29 -1 19 13 -8 13 -22 14 -29
2z"/>
<path d="M2796 9575 c-3 -9 0 -15 9 -15 16 0 20 16 6 24 -5 3 -11 -1 -15 -9z"/>
<path d="M4621 9458 c-13 -12 -32 -39 -44 -58 -12 -19 -30 -43 -41 -54 -19
-19 -19 -20 2 -34 14 -9 22 -25 22 -44 0 -44 17 -68 48 -68 24 0 30 7 45 47
10 26 14 49 9 51 -5 1 -17 8 -26 15 -15 11 -15 17 4 82 22 76 15 100 -19 63z"/>
<path d="M5889 9298 c-12 -17 -26 -51 -30 -75 -5 -27 -21 -59 -39 -80 -17 -19
-28 -38 -25 -44 4 -5 -8 -22 -26 -38 -32 -30 -54 -31 -76 -4 -10 13 -13 12
-22 -6 -6 -11 -11 -32 -11 -48 0 -35 -90 -125 -143 -142 l-34 -11 5 -58 c2
-31 8 -61 13 -66 11 -12 49 21 49 43 0 8 31 46 69 82 38 37 77 81 85 98 18 33
44 51 75 51 26 0 26 -8 1 -94 -18 -64 -18 -70 -3 -81 13 -9 15 -22 10 -59 -4
-28 -3 -46 3 -46 6 0 10 5 10 11 0 7 11 9 28 6 25 -5 36 1 78 44 27 28 61 57
75 64 15 8 34 30 43 49 14 30 15 42 5 81 -6 25 -15 48 -20 51 -5 3 -9 14 -9
25 0 20 -1 20 -29 -3 -16 -13 -32 -32 -35 -43 -3 -11 -15 -31 -27 -44 -17 -21
-22 -22 -30 -10 -5 7 -9 19 -9 26 0 15 40 53 56 53 6 0 24 25 40 55 26 48 27
58 17 85 -8 22 -9 40 -2 57 12 31 -14 81 -48 94 -18 7 -26 2 -44 -23z m81
-122 c0 -3 -4 -8 -10 -11 -5 -3 -10 -1 -10 4 0 6 5 11 10 11 6 0 10 -2 10 -4z
m-89 -98 c-21 -34 -51 -49 -51 -26 0 24 30 58 52 58 l20 0 -21 -32z"/>
<path d="M5248 9165 c-13 -19 -32 -39 -44 -45 -11 -6 -31 -32 -45 -58 -13 -26
-30 -53 -36 -60 -14 -15 -16 -44 -7 -79 10 -37 50 -30 64 10 6 17 25 43 42 56
27 22 42 27 84 30 6 1 16 18 23 39 12 34 11 44 -9 90 -12 29 -29 52 -36 52 -8
0 -24 -16 -36 -35z"/>
<path d="M5595 9170 c-3 -5 -1 -10 4 -10 6 0 11 5 11 10 0 6 -2 10 -4 10 -3 0
-8 -4 -11 -10z"/>
<path d="M4598 9053 c-39 -46 -61 -123 -35 -123 27 0 98 101 90 128 -7 18 -37
15 -55 -5z"/>
<path d="M4665 8937 c-8 -11 -22 -45 -31 -76 -10 -31 -23 -65 -31 -76 -13 -19
-18 -55 -7 -55 13 0 84 65 84 76 0 12 26 76 51 126 12 25 12 25 -22 25 -19 0
-35 -8 -44 -20z"/>
<path d="M5017 8893 c-18 -48 -12 -103 13 -103 10 0 20 8 23 18 3 9 14 29 23
44 16 24 16 27 1 43 -9 9 -17 21 -17 26 0 24 -30 5 -43 -28z"/>
<path d="M5295 8897 c-24 -28 -56 -91 -57 -113 -2 -17 -9 -24 -23 -24 -22 -1
-58 -24 -50 -32 3 -3 -1 -11 -10 -18 -16 -13 -21 -40 -6 -40 4 0 37 28 73 63
36 34 77 73 92 86 20 18 26 32 24 55 -3 33 -25 45 -43 23z"/>
<path d="M1447 8750 c-3 -8 -10 -55 -17 -105 -14 -106 -57 -334 -69 -367 -4
-13 -14 -68 -21 -123 -7 -55 -17 -104 -22 -109 -4 -6 -8 -27 -8 -47 0 -21 -5
-50 -10 -65 -9 -24 -26 -118 -50 -289 -14 -96 -37 -217 -49 -255 -6 -19 -11
-42 -11 -51 0 -19 64 -64 102 -71 25 -5 28 -2 38 41 22 88 22 97 6 110 -19 16
-21 51 -3 74 6 9 30 17 52 19 38 3 40 5 44 38 2 19 3 89 2 155 -1 135 11 212
40 249 20 26 20 28 4 323 -9 164 -13 327 -10 363 6 64 -7 141 -18 110z"/>
<path d="M4021 8712 c-11 -21 -6 -32 16 -32 15 0 18 36 4 45 -6 3 -15 -3 -20
-13z"/>
<path d="M6025 8704 c-10 -16 -45 -55 -78 -87 -51 -50 -60 -64 -62 -98 -1 -22
-13 -56 -29 -79 -14 -22 -26 -52 -26 -68 0 -15 -4 -32 -9 -37 -5 -6 -12 -26
-16 -45 -5 -28 -2 -41 15 -60 17 -19 21 -34 17 -65 -3 -31 18 -170 28 -183 9
-11 73 33 94 63 14 21 52 56 84 78 62 42 76 70 59 115 -18 45 -44 261 -43 360
0 51 -3 102 -8 114 -8 22 -8 21 -26 -8z m-49 -369 c9 -23 -15 -45 -47 -45 -39
0 -40 34 -1 48 38 14 42 14 48 -3z m-116 -44 c0 -6 -4 -13 -10 -16 -5 -3 -10
1 -10 9 0 9 5 16 10 16 6 0 10 -4 10 -9z m60 -140 c0 -16 -30 -33 -46 -27 -13
5 -14 9 -4 21 13 16 50 21 50 6z"/>
<path d="M5638 8655 c-40 -41 -71 -65 -85 -65 -17 0 -23 -8 -28 -42 -4 -24
-11 -51 -17 -60 -19 -38 18 -16 89 53 69 67 75 71 108 65 29 -6 35 -4 35 10 0
10 5 33 12 51 10 29 10 36 -2 43 -30 19 -51 9 -112 -55z"/>
<path d="M4912 8698 c-14 -14 -16 -74 -3 -82 5 -3 16 6 26 20 27 41 8 93 -23
62z"/>
<path d="M5330 8677 c-9 -7 -22 -26 -29 -43 -7 -17 -24 -37 -37 -43 -21 -9
-25 -17 -22 -44 3 -30 5 -32 41 -31 29 1 37 -2 37 -16 0 -10 -7 -24 -16 -31
-12 -10 -15 -25 -11 -62 5 -56 -22 -107 -62 -117 -18 -4 -28 -17 -39 -49 -11
-33 -22 -46 -46 -56 -33 -14 -106 -86 -106 -105 0 -6 -8 -10 -18 -10 -13 0
-23 15 -35 52 -9 30 -13 56 -8 62 5 6 12 25 15 43 4 17 27 52 52 77 50 52 54
66 19 66 -25 0 -47 -18 -90 -72 -11 -14 -23 -24 -27 -22 -11 7 -21 -63 -14
-94 3 -15 7 -61 8 -103 4 -92 18 -116 53 -93 13 9 30 17 37 18 23 3 44 20 64
51 10 17 29 41 42 55 12 14 25 33 28 43 3 9 11 17 18 17 29 0 79 35 92 64 8
17 39 51 69 76 63 52 73 76 51 119 -20 38 -32 169 -19 207 6 16 8 35 6 42 -6
15 -33 15 -53 -1z"/>
<path d="M3992 8617 c-6 -7 -15 -32 -21 -56 -5 -24 -14 -48 -20 -54 -18 -18
-13 -55 9 -67 15 -8 20 -8 20 1 0 22 64 118 82 122 18 5 16 27 -5 55 -12 16
-52 16 -65 -1z"/>
<path d="M4220 8540 c-32 -37 -60 -40 -60 -5 0 18 -5 25 -20 25 -23 0 -26 -6
-34 -67 -5 -37 -4 -43 11 -44 15 0 15 -2 -4 -16 -13 -8 -23 -22 -23 -29 0 -8
-7 -14 -16 -14 -8 0 -12 5 -9 10 3 6 -1 10 -10 10 -26 0 -72 -53 -86 -98 -7
-23 -15 -40 -17 -37 -3 3 -19 -25 -35 -62 -28 -65 -46 -85 -92 -108 -11 -5
-29 -29 -40 -52 -12 -25 -29 -45 -42 -49 -18 -5 -22 -14 -25 -60 -1 -30 0 -54
4 -54 11 0 129 141 164 196 18 29 58 77 88 108 34 35 61 74 72 105 11 31 27
54 42 63 14 7 49 43 79 81 30 37 57 67 61 67 4 0 13 14 19 30 14 38 5 38 -27
0z"/>
<path d="M4993 8543 c-13 -5 -19 -53 -7 -53 11 0 34 29 34 44 0 16 -6 18 -27
9z"/>
<path d="M4934 8474 c-4 -10 -9 -22 -11 -26 -2 -5 0 -8 6 -8 11 0 26 39 17 47
-3 3 -9 -3 -12 -13z"/>
<path d="M5669 8420 c-38 -38 -74 -70 -78 -70 -12 0 -31 -56 -31 -91 0 -15 6
-34 14 -42 9 -8 13 -27 11 -45 -2 -16 0 -43 4 -59 4 -16 3 -38 -2 -50 -7 -16
-7 -35 2 -60 6 -21 12 -75 14 -120 2 -77 3 -82 22 -76 35 10 62 33 90 73 14
21 37 41 51 44 26 7 29 20 18 100 l-7 46 -28 -32 c-16 -17 -29 -36 -29 -42 0
-6 -12 -22 -25 -35 -15 -14 -25 -35 -26 -55 -1 -20 -3 -24 -6 -11 -2 11 -11
34 -19 52 -19 41 -18 60 6 97 20 34 92 96 110 96 15 0 34 46 27 64 -4 9 -18
21 -31 27 -21 10 -29 8 -63 -20 -36 -30 -70 -44 -45 -19 18 18 15 58 -4 58 -8
0 -12 5 -9 11 4 6 9 8 12 5 9 -9 63 34 63 51 0 8 11 24 25 35 22 17 25 27 25
79 0 34 -4 59 -10 59 -6 0 -42 -31 -81 -70z"/>
<path d="M2373 8439 c-8 -8 -48 -12 -110 -11 -54 1 -129 -5 -168 -13 -68 -13
-63 -13 132 -11 111 1 205 5 209 9 10 10 -16 37 -35 37 -9 0 -22 -5 -28 -11z"/>
<path d="M1797 8404 c-26 -26 70 -32 168 -10 l60 14 -111 1 c-61 1 -114 -2
-117 -5z"/>
<path d="M3196 8397 c-17 -12 -17 -14 -1 -27 15 -12 19 -12 31 5 8 10 14 22
14 27 0 12 -24 10 -44 -5z"/>
<path d="M3610 8383 c-14 -2 -35 -6 -47 -8 -29 -7 -38 -52 -18 -91 8 -16 15
-35 15 -41 0 -16 25 -17 50 -1 16 10 25 9 48 -4 34 -20 50 -12 58 30 5 25 3
32 -9 32 -9 0 -19 -4 -22 -10 -14 -22 -25 -7 -25 34 0 48 -13 64 -50 59z"/>
<path d="M4670 8258 c0 -64 -7 -78 -50 -97 -46 -20 -110 -94 -110 -127 0 -35
18 -29 28 9 6 22 15 33 30 35 11 2 31 19 42 38 12 19 27 34 34 34 21 0 46 -34
46 -62 0 -14 5 -39 11 -56 9 -27 14 -30 29 -22 24 13 37 69 19 81 -10 6 -14
33 -15 90 0 77 -2 83 -24 91 -14 5 -28 14 -32 21 -4 7 -8 -9 -8 -35z"/>
<path d="M3441 8248 c-1 -21 4 -38 9 -38 11 0 11 14 0 50 -7 22 -8 21 -9 -12z"/>
<path d="M3110 8190 c-8 -5 -11 -12 -7 -16 4 -4 13 -2 19 4 15 15 7 24 -12 12z"/>
<path d="M5373 8135 c-18 -24 -33 -50 -33 -57 0 -9 -3 -9 -10 2 -5 8 -10 12
-12 10 -2 -3 -27 -31 -56 -63 -29 -32 -50 -63 -46 -68 8 -13 30 -11 46 4 8 6
23 17 33 23 11 6 27 26 36 44 16 33 17 33 28 13 27 -52 -8 -141 -50 -128 -25
8 -49 -11 -49 -39 0 -12 -9 -42 -21 -65 -18 -39 -19 -45 -6 -59 9 -8 27 -16
41 -17 42 -5 47 -13 41 -63 -11 -83 -16 -102 -29 -102 -7 0 -18 -11 -24 -25
-15 -32 3 -43 26 -15 18 22 74 59 130 85 42 20 70 78 50 102 -7 9 -16 50 -21
92 -10 99 -10 96 -3 167 4 34 2 74 -4 88 -7 20 -6 36 4 60 10 25 11 37 3 45
-20 20 -42 11 -74 -34z"/>
<path d="M3562 8138 c-17 -17 -15 -36 8 -68 34 -48 116 -35 122 19 3 22 -1 24
-42 27 -26 1 -49 9 -56 18 -14 19 -16 20 -32 4z"/>
<path d="M4215 8120 c-4 -6 -8 -30 -9 -53 -1 -23 -10 -58 -19 -76 -19 -38 -22
-61 -7 -61 6 0 10 -7 10 -15 0 -30 28 -14 70 39 23 30 47 57 53 59 6 2 2 12
-11 25 -14 14 -22 34 -22 57 0 32 -2 35 -29 35 -17 0 -33 -5 -36 -10z"/>
<path d="M1800 8041 c0 -11 -3 -26 -6 -35 -5 -14 7 -16 102 -15 90 1 201 14
157 18 -7 0 -13 10 -13 21 0 18 7 20 60 20 53 0 60 -2 60 -19 0 -11 -8 -22
-17 -24 -12 -3 -9 -5 8 -6 31 -1 52 20 43 43 -5 14 -30 16 -200 16 -185 0
-194 -1 -194 -19z"/>
<path d="M2408 8035 c2 -14 6 -25 8 -25 2 0 4 11 4 25 0 14 -4 25 -9 25 -4 0
-6 -11 -3 -25z"/>
<path d="M6055 8017 c-16 -16 -54 -43 -82 -59 -29 -17 -53 -36 -53 -43 0 -7
-9 -23 -19 -37 -24 -30 -29 -150 -12 -293 6 -54 6 -108 1 -135 -5 -27 -5 -46
1 -48 5 -2 9 -12 9 -22 0 -29 19 -34 41 -11 10 11 36 25 57 31 22 5 47 19 57
30 10 11 22 20 27 20 4 0 17 9 29 21 20 20 20 28 15 247 -3 125 -10 247 -15
272 -6 25 -10 48 -11 53 0 13 -14 5 -45 -26z m42 -494 c-9 -9 -20 -13 -24 -9
-4 4 1 14 11 22 25 18 35 8 13 -13z"/>
<path d="M3557 7971 c-11 -55 -8 -91 7 -91 7 0 30 -18 50 -40 20 -22 38 -40
40 -40 2 0 6 15 9 33 3 17 8 42 12 55 6 17 4 23 -6 21 -33 -7 -59 12 -59 42 0
22 -5 29 -19 29 -11 0 -21 6 -23 12 -3 7 -8 -2 -11 -21z"/>
<path d="M5165 7936 c-14 -14 -38 -32 -54 -40 -15 -8 -51 -33 -79 -56 -57 -44
-65 -71 -36 -116 14 -21 16 -41 11 -119 -7 -105 4 -129 30 -68 11 25 17 71 18
132 2 86 4 95 27 115 14 11 36 42 48 68 13 26 27 45 32 42 4 -3 8 0 8 7 0 7 7
21 17 31 26 29 7 33 -22 4z"/>
<path d="M2240 7794 c-19 -9 -63 -17 -98 -17 l-64 -2 5 -29 c3 -23 -3 -36 -27
-58 -75 -70 -86 -82 -86 -91 0 -5 -11 -7 -25 -5 -20 4 -23 3 -14 -8 6 -7 8
-18 4 -24 -4 -6 -8 -21 -10 -33 -2 -12 -7 -32 -10 -44 -5 -15 -3 -23 4 -23 7
0 9 -5 6 -10 -3 -6 7 -22 24 -36 26 -22 31 -33 31 -69 0 -48 17 -95 34 -95 6
0 29 -18 51 -40 67 -68 77 -75 164 -118 83 -42 161 -56 176 -32 3 6 26 10 50
10 28 0 45 5 48 15 7 17 -10 588 -19 628 -3 15 -9 27 -13 27 -4 0 -31 16 -61
35 -61 39 -111 45 -170 19z m-161 -363 c8 -5 11 -16 8 -25 -5 -14 -11 -15 -27
-6 -11 6 -20 17 -20 25 0 17 18 19 39 6z"/>
<path d="M4628 7718 c5 -31 5 -31 13 -9 9 23 5 41 -10 41 -4 0 -5 -14 -3 -32z"/>
<path d="M5153 7733 c-7 -2 -13 -10 -13 -16 0 -6 -10 -21 -22 -34 -27 -28 -17
-53 25 -64 l27 -7 0 64 c0 35 -1 64 -2 63 -2 0 -9 -3 -15 -6z"/>
<path d="M5647 7712 c-27 -13 -28 -15 -21 -70 4 -32 8 -127 9 -212 1 -85 5
-175 9 -200 4 -25 9 -60 12 -77 3 -23 10 -33 23 -33 13 0 17 7 14 28 -4 33 14
55 85 102 48 32 51 37 46 66 -3 17 1 46 9 65 11 28 11 39 1 64 -7 17 -13 57
-14 90 0 33 -3 90 -6 127 l-7 66 -40 -39 c-34 -33 -38 -40 -27 -54 13 -16 41
-147 41 -195 1 -14 -7 -29 -17 -35 -9 -5 -25 -18 -35 -27 -26 -24 -38 -4 -40
66 -2 43 -6 59 -20 66 -11 7 -16 17 -12 32 8 38 26 68 40 68 7 0 13 9 13 20 0
11 -6 20 -14 20 -16 0 -27 45 -14 58 17 17 -6 19 -35 4z m155 -424 c-7 -7 -12
-8 -12 -2 0 14 12 26 19 19 2 -3 -1 -11 -7 -17z"/>
<path d="M5138 7540 c-23 -49 -29 -103 -11 -95 8 3 32 5 54 5 48 0 51 17 10
48 -18 13 -31 33 -33 49 l-3 28 -17 -35z"/>
<path d="M5413 7538 c-17 -18 -38 -58 -48 -88 -10 -30 -24 -62 -31 -71 -8 -8
-14 -20 -14 -26 0 -6 -5 -13 -11 -15 -7 -2 -7 -12 0 -31 9 -22 8 -33 -4 -50
-8 -12 -15 -30 -15 -40 0 -17 5 -18 36 -12 27 5 41 2 55 -11 17 -15 17 -18 3
-28 -13 -10 -38 -86 -30 -94 2 -1 20 7 39 18 41 24 67 19 44 -8 -41 -48 -22
-69 26 -28 26 23 37 56 18 56 -6 0 -4 15 3 33 14 35 14 33 -3 152 -9 61 -9 92
0 132 9 40 9 59 1 78 -7 14 -12 35 -12 45 0 29 -22 24 -57 -12z"/>
<path d="M3314 7525 c-8 -33 -1 -40 25 -23 27 17 28 48 1 48 -13 0 -22 -9 -26
-25z"/>
<path d="M4590 7490 c0 -5 5 -10 10 -10 6 0 10 5 10 10 0 6 -4 10 -10 10 -5 0
-10 -4 -10 -10z"/>
<path d="M4326 7471 c-3 -5 1 -12 10 -15 27 -11 37 -7 24 9 -14 17 -26 19 -34
6z"/>
<path d="M5012 7408 c-13 -48 2 -57 38 -23 31 30 30 38 -7 49 -19 6 -24 2 -31
-26z"/>
<path d="M4224 7352 c-49 -39 -55 -96 -8 -65 22 14 54 61 54 78 0 11 -26 4
-46 -13z"/>
<path d="M5090 7308 c-63 -42 -65 -44 -62 -83 1 -22 4 -83 6 -135 2 -52 7
-131 11 -175 4 -44 7 -99 6 -122 -1 -51 12 -55 35 -10 21 40 35 51 104 84 30
15 58 31 61 36 13 19 6 126 -8 131 -8 4 -13 23 -13 53 0 45 -10 100 -24 133
-4 10 5 22 25 35 33 22 64 71 50 79 -5 3 -22 2 -37 -3 -69 -22 -82 -22 -86 -1
-3 19 -8 17 -68 -22z m114 -331 c16 -12 15 -17 -23 -65 -45 -56 -52 -60 -75
-37 -11 11 -13 25 -9 48 11 56 66 84 107 54z"/>
<path d="M4373 7263 c-16 -6 -17 -33 -2 -33 5 0 8 4 4 9 -3 5 3 11 12 13 10 2
14 6 8 9 -5 4 -16 4 -22 2z"/>
<path d="M3379 7144 c-10 -13 -10 -17 2 -25 8 -5 17 -9 20 -9 13 0 31 29 24
40 -9 15 -31 12 -46 -6z"/>
<path d="M3320 7136 c0 -10 8 -16 22 -16 12 0 19 1 17 3 -2 1 -12 9 -21 16
-15 12 -18 11 -18 -3z"/>
<path d="M3322 7070 c0 -14 2 -19 5 -12 2 6 2 18 0 25 -3 6 -5 1 -5 -13z"/>
<path d="M6095 7040 c-11 -5 -36 -22 -55 -39 -19 -17 -40 -31 -47 -31 -18 0
-26 -37 -18 -88 11 -79 13 -82 41 -71 21 7 31 5 54 -13 35 -28 38 -54 7 -62
-20 -5 -22 -10 -19 -51 2 -25 -1 -51 -7 -59 -11 -14 -5 -73 9 -81 4 -3 22 -2
39 1 l31 7 0 248 c0 137 -3 249 -7 248 -5 0 -17 -4 -28 -9z"/>
<path d="M5497 6995 c-7 -16 8 -29 23 -20 15 9 12 35 -4 35 -8 0 -16 -7 -19
-15z"/>
<path d="M1121 6903 c-5 -21 -12 -67 -16 -103 -3 -35 -10 -72 -15 -81 -5 -9
-14 -50 -20 -90 -6 -41 -14 -92 -17 -114 -3 -22 -12 -50 -20 -62 -22 -33 -13
-66 21 -78 22 -7 30 -7 33 2 2 6 17 27 34 45 l29 33 -1 243 c0 234 -7 286 -28
205z"/>
<path d="M5880 6912 c-8 -3 -38 -16 -67 -28 -28 -13 -63 -24 -77 -24 -35 0
-76 -20 -76 -38 0 -9 7 -23 16 -33 13 -14 15 -27 9 -56 -5 -21 -7 -67 -5 -103
1 -36 3 -109 4 -162 1 -53 5 -100 9 -105 17 -16 27 26 26 102 -2 44 1 89 4
100 5 13 32 30 82 50 64 25 75 33 81 58 4 21 1 32 -13 43 -15 12 -16 15 -3 23
8 5 17 8 21 5 15 -9 30 55 24 102 -9 60 -16 73 -35 66z"/>
<path d="M3365 6871 c-3 -11 -12 -22 -20 -25 -12 -4 -13 -10 -3 -32 10 -22 10
-27 -5 -35 -11 -6 -17 -22 -17 -43 0 -33 1 -34 46 -38 32 -2 49 1 60 13 18 20
18 35 0 42 -11 4 -13 16 -9 40 3 20 1 37 -6 41 -6 4 -11 18 -11 32 0 29 -26
33 -35 5z m25 -101 c0 -5 -4 -10 -10 -10 -5 0 -10 5 -10 10 0 6 5 10 10 10 6
0 10 -4 10 -10z"/>
<path d="M5480 6685 c-33 -18 -55 -23 -80 -19 -31 4 -37 1 -52 -23 -13 -23
-15 -41 -8 -108 5 -44 9 -81 9 -83 1 -2 13 6 27 17 15 12 30 21 35 21 4 0 8
-24 8 -52 0 -62 11 -96 39 -122 18 -15 19 -21 9 -40 -7 -11 -16 -24 -22 -28
-6 -5 -5 -12 2 -19 10 -10 18 -10 35 -1 13 7 35 13 51 14 32 3 32 2 6 37 -19
26 -21 37 -15 108 9 97 13 323 6 323 -3 -1 -25 -12 -50 -25z"/>
<path d="M5210 6565 c-28 -11 -35 -18 -32 -37 1 -17 -7 -33 -28 -51 -36 -33
-46 -34 -54 -5 -3 14 -9 19 -14 13 -5 -6 -5 -60 0 -130 5 -66 9 -156 8 -200 0
-44 3 -86 8 -93 12 -18 58 1 67 28 5 16 -1 123 -9 160 -1 3 21 16 49 30 71 35
81 61 68 175 -5 52 -6 97 -1 108 10 21 -9 21 -62 2z"/>
<path d="M4163 6538 c-25 -12 -32 -48 -10 -48 14 0 57 41 57 53 0 10 -21 7
-47 -5z"/>
<path d="M5812 6528 c-5 -7 -12 -30 -14 -52 -4 -53 20 -69 59 -40 38 29 40 66
3 87 -34 20 -35 20 -48 5z"/>
<path d="M6077 6427 l-39 -32 7 -75 c4 -41 12 -83 17 -93 12 -23 -6 -47 -36
-47 -17 0 -21 -7 -23 -34 -1 -19 -9 -48 -18 -66 -21 -40 -6 -63 23 -37 30 27
35 20 29 -38 -5 -53 -5 -55 18 -55 13 0 27 5 31 11 3 6 15 9 25 6 18 -5 19 5
19 244 0 137 -3 249 -7 249 -5 0 -25 -15 -46 -33z m26 -327 c-20 -23 -43 -26
-43 -7 0 20 10 27 37 27 22 0 22 -1 6 -20z"/>
<path d="M5355 6411 c-3 -11 -17 -35 -30 -54 -21 -32 -22 -39 -11 -71 22 -65
32 -63 55 12 25 82 26 105 7 121 -11 10 -16 8 -21 -8z"/>
<path d="M5879 6260 c-1 -25 -1 -60 -1 -78 -1 -27 -6 -36 -32 -49 -17 -8 -41
-24 -53 -35 -35 -33 -50 -18 -58 59 -8 81 -13 103 -25 103 -23 0 -31 -42 -22
-118 5 -42 10 -88 10 -102 -1 -27 22 -186 29 -210 3 -11 11 -7 29 15 26 33 30
51 13 57 -8 3 -6 9 4 20 9 8 19 33 23 54 8 45 29 74 55 74 11 0 30 10 44 22
28 24 31 55 15 152 -12 77 -30 96 -31 36z"/>
<path d="M1469 6220 c-23 -26 -34 -30 -78 -30 -42 0 -60 -6 -102 -35 -28 -19
-63 -35 -78 -35 -14 0 -32 -4 -39 -9 -17 -10 28 -42 73 -51 23 -4 40 -21 72
-68 23 -35 43 -66 45 -71 2 -4 37 -19 78 -34 53 -18 79 -22 88 -15 27 23 7
379 -22 378 -6 -1 -23 -14 -37 -30z"/>
<path d="M2493 6227 c-12 -15 -23 -49 -27 -81 -3 -30 -9 -61 -12 -70 -8 -22
15 -20 42 2 25 21 39 100 26 146 l-8 29 -21 -26z"/>
<path d="M3870 6215 c0 -37 10 -44 29 -21 9 11 10 20 1 35 -16 32 -30 25 -30
-14z"/>
<path d="M2091 6158 c-1 -9 -14 -36 -30 -60 -16 -24 -31 -54 -32 -68 -3 -21 0
-25 24 -26 35 -1 35 -2 38 -50 2 -27 -4 -53 -19 -77 -20 -35 -20 -37 -3 -46
24 -13 16 -64 -15 -94 -25 -23 -32 -47 -13 -47 6 0 18 -7 27 -16 14 -15 14
-20 -8 -63 -13 -25 -31 -53 -40 -62 -8 -9 -26 -30 -39 -48 -19 -24 -30 -31
-47 -27 -45 12 -58 -55 -13 -69 14 -5 28 2 48 24 16 17 38 31 49 31 27 0 52
-26 52 -53 0 -12 4 -28 9 -36 6 -10 12 -5 24 18 12 25 13 38 5 63 -7 20 -8 70
-3 147 10 162 8 510 -4 546 -5 17 -10 22 -10 13z"/>
<path d="M5436 6145 c-18 -19 -20 -31 -6 -40 12 -7 14 -94 3 -96 -5 -1 -19 -2
-33 -3 -22 -1 -26 -7 -31 -46 -8 -54 1 -67 32 -47 39 24 89 29 96 11 3 -9 1
-25 -5 -35 -7 -10 -12 -28 -12 -38 0 -11 -4 -23 -10 -26 -5 -3 -10 -16 -10
-28 -1 -12 -14 -37 -29 -55 l-29 -34 -12 39 c-18 56 -27 60 -43 20 -13 -29
-13 -43 -3 -76 6 -23 22 -48 34 -57 20 -14 24 -13 49 5 16 11 53 28 83 37 30
10 58 22 62 28 10 15 -1 293 -13 323 -5 13 -9 46 -9 73 0 56 -8 64 -45 50 -19
-7 -31 -7 -40 0 -9 8 -17 6 -29 -5z"/>
<path d="M3460 6110 c-8 -14 -7 -29 5 -56 13 -31 17 -34 30 -24 9 8 15 30 15
56 0 37 -3 44 -20 44 -10 0 -24 -9 -30 -20z"/>
<path d="M1847 6083 c-17 -16 -5 -33 23 -33 19 0 30 5 30 14 0 20 -39 34 -53
19z"/>
<path d="M5221 6000 c-13 -11 -33 -20 -45 -21 -15 -1 -12 -3 12 -10 28 -8 32
-14 32 -44 0 -19 -4 -35 -10 -35 -5 0 -10 5 -10 10 0 6 -9 10 -20 10 -11 0
-27 11 -36 24 -30 47 -65 3 -68 -85 -1 -38 3 -57 13 -65 11 -9 14 -33 12 -113
-2 -94 -1 -101 17 -101 34 0 59 32 66 82 4 34 1 49 -9 58 -20 16 -19 32 3 52
9 9 25 27 34 41 12 18 24 24 38 20 21 -6 70 30 70 51 0 5 -12 23 -27 38 -21
22 -27 38 -27 68 2 45 -9 49 -45 20z"/>
<path d="M2507 5943 c-3 -16 -9 -36 -12 -45 -5 -12 -2 -18 8 -18 15 0 27 28
27 68 0 31 -16 28 -23 -5z"/>
<path d="M952 5948 c-14 -18 -19 -82 -7 -86 6 -1 13 19 16 45 7 54 6 59 -9 41z"/>
<path d="M5794 5908 c3 -13 5 -26 5 -30 1 -3 9 -4 20 -1 16 4 17 8 7 29 -14
31 -37 32 -32 2z"/>
<path d="M1956 5879 c-12 -39 -27 -111 -36 -171 -15 -100 4 -127 44 -58 15 25
17 36 8 50 -12 20 -9 74 6 93 19 25 20 66 1 83 -15 14 -19 14 -23 3z"/>
<path d="M6115 5841 c-6 -5 -26 -14 -46 -20 -33 -11 -36 -14 -37 -55 -3 -71
31 -133 40 -73 2 17 9 22 31 22 27 -1 27 0 27 67 0 72 0 73 -15 59z"/>
<path d="M5913 5776 c-22 -18 -48 -27 -94 -33 l-64 -8 -5 -105 c-3 -58 -8
-110 -12 -116 -4 -6 -21 -17 -38 -24 -43 -18 -37 -28 18 -32 l47 -3 -1 -40
c-1 -21 -7 -41 -13 -43 -19 -6 -12 -39 11 -54 18 -12 21 -23 19 -66 -1 -36 2
-52 11 -52 27 0 88 21 88 30 0 6 8 10 18 10 9 0 30 7 46 15 15 8 39 15 52 15
37 0 41 28 10 57 -14 13 -24 28 -21 34 4 5 3 14 0 19 -10 16 -45 -8 -45 -30 0
-11 -6 -20 -12 -20 -7 0 -24 -3 -37 -7 -22 -6 -23 -4 -19 26 3 19 -1 36 -9 42
-14 12 -17 37 -7 63 10 25 68 21 86 -6 18 -28 38 -16 38 23 0 16 6 44 14 62
12 30 11 36 -5 56 -17 21 -22 22 -54 11 -19 -6 -37 -16 -40 -21 -4 -5 -22 -9
-41 -9 -26 0 -34 4 -34 18 1 29 35 60 74 67 50 10 66 29 66 78 0 63 -11 73
-47 43z"/>
<path d="M6087 5659 c-30 -29 -38 -43 -35 -65 3 -33 32 -43 61 -22 14 11 18
25 15 69 l-3 55 -38 -37z"/>
<path d="M5270 5645 c-14 -16 -10 -18 14 -9 9 3 16 10 16 15 0 14 -16 11 -30
-6z"/>
<path d="M5528 5613 c-16 -2 -28 -8 -28 -13 0 -7 -28 -21 -50 -25 -62 -11 -80
-37 -60 -86 7 -16 10 -42 7 -59 -8 -36 4 -44 56 -41 37 2 39 0 33 -21 -4 -13
-10 -45 -13 -71 -5 -45 -8 -48 -29 -43 -20 5 -25 1 -35 -36 -6 -24 -12 -45
-14 -48 -2 -3 3 -14 11 -25 14 -19 15 -19 60 4 l45 24 15 -21 c17 -25 24 -26
76 -12 22 6 39 19 43 30 4 11 13 27 21 35 14 13 14 16 -3 21 -47 14 -48 18
-47 113 1 70 4 95 18 109 15 17 15 22 1 48 -8 16 -15 36 -15 45 0 9 -5 30 -11
48 -11 32 -17 34 -81 24z m-48 -124 c0 -17 -27 -39 -49 -39 -16 0 -21 6 -21
25 0 22 4 25 35 25 19 0 35 -5 35 -11z"/>
<path d="M1918 5543 c-6 -24 6 -51 16 -35 3 6 2 20 -2 33 -9 22 -9 22 -14 2z"/>
<path d="M5283 5519 c-5 -5 -37 -18 -69 -28 l-59 -17 3 -95 c1 -52 4 -144 5
-206 1 -61 6 -115 10 -119 5 -5 32 4 60 19 29 15 59 27 67 27 27 0 60 30 60
54 0 26 -28 56 -53 56 -27 0 -22 68 8 112 26 39 30 55 16 76 -6 11 -15 11 -49
0 -23 -7 -42 -16 -42 -20 0 -14 -38 -8 -43 6 -12 30 4 54 41 61 53 9 82 31 82
60 0 26 -18 33 -37 14z m-33 -249 c0 -16 -4 -32 -10 -35 -16 -10 -12 -28 5
-21 21 8 19 -6 -4 -26 -18 -15 -19 -13 -24 40 -4 34 -2 61 5 69 15 19 28 6 28
-27z"/>
<path d="M6081 5344 c-23 -29 -19 -50 12 -58 36 -9 37 -8 37 39 0 53 -17 59
-49 19z"/>
<path d="M3223 5215 c1 -69 6 -108 12 -105 13 6 9 176 -5 198 -7 12 -9 -16 -7
-93z"/>
<path d="M2074 5232 c-13 -33 4 -91 24 -85 16 6 16 87 -1 101 -10 9 -15 5 -23
-16z"/>
<path d="M5053 5113 c-7 -2 -13 -9 -13 -15 0 -14 43 -6 48 10 4 12 -12 15 -35
5z"/>
<path d="M5815 5106 c-18 -13 -18 -19 -7 -77 14 -75 19 -339 7 -386 -7 -33 -7
-33 28 -33 20 0 58 5 85 10 27 6 62 12 78 14 16 2 31 4 34 5 3 0 3 25 2 55 -3
47 -1 56 19 70 29 20 34 20 53 0 15 -14 16 -12 16 27 0 42 0 42 -21 23 -12
-11 -32 -17 -51 -16 -21 2 -35 -4 -45 -18 -8 -11 -18 -18 -23 -15 -5 3 -25 -2
-44 -12 -20 -9 -38 -14 -42 -11 -12 12 -9 101 4 105 6 3 12 -2 12 -11 0 -8 9
-20 20 -26 25 -13 60 3 60 28 0 9 9 23 19 29 15 9 19 24 20 67 0 47 -3 56 -21
62 -20 6 -38 -8 -38 -32 0 -6 -11 -21 -25 -34 -14 -13 -25 -29 -25 -36 0 -6
-6 -17 -14 -23 -11 -9 -16 -5 -25 20 -6 18 -11 47 -11 65 0 28 6 38 40 59 22
14 40 29 40 33 0 4 14 13 30 20 35 16 38 28 9 37 -13 4 -27 1 -38 -9 -22 -20
-51 -21 -51 -2 0 27 -63 35 -95 12z"/>
<path d="M5505 5050 c-11 -12 -31 -20 -49 -20 l-31 0 0 -65 c0 -47 4 -69 17
-81 16 -17 18 -17 38 1 30 27 38 11 41 -88 3 -69 0 -90 -11 -98 -11 -6 -12
-11 -3 -16 12 -9 16 -25 14 -60 -1 -14 -9 -23 -23 -25 -13 -2 -24 -10 -26 -19
-2 -14 6 -16 50 -13 54 3 146 18 153 26 2 2 6 35 9 73 2 39 7 77 10 85 4 8 1
38 -5 65 -10 47 -18 93 -35 208 l-7 47 -62 0 c-49 0 -66 -4 -80 -20z"/>
<path d="M470 4966 c0 -27 -6 -39 -29 -55 -40 -29 -85 -12 -97 37 l-9 34 -27
-21 c-14 -12 -40 -24 -57 -27 l-31 -6 0 -75 c0 -119 27 -151 135 -157 33 -2
85 -7 115 -11 48 -6 59 -4 82 14 41 33 72 104 63 148 -13 71 -61 129 -122 148
-21 6 -23 3 -23 -29z"/>
<path d="M5330 4985 c0 -8 -4 -15 -10 -15 -5 0 -10 4 -10 9 0 5 -15 6 -33 1
-18 -4 -60 -6 -94 -4 l-62 2 18 -32 c36 -63 70 -234 75 -378 2 -49 14 -61 52
-49 16 6 49 12 74 13 40 3 45 6 45 27 0 18 -6 25 -25 27 -14 2 -36 7 -50 10
l-25 6 23 9 c12 4 22 13 22 19 0 6 10 15 23 20 18 7 15 9 -20 9 -36 1 -44 5
-61 36 -12 19 -22 56 -24 82 -3 46 -2 48 25 51 31 4 93 -21 99 -39 2 -6 1 -36
-2 -66 -6 -53 -6 -54 19 -51 21 2 27 9 29 36 2 18 -3 43 -11 55 -24 37 -39 95
-29 112 10 19 -16 84 -35 85 -6 0 -9 9 -6 20 3 11 3 20 -1 20 -3 0 -6 -7 -6
-15z m-20 -34 c0 -20 -18 -31 -51 -31 -26 0 -24 23 4 36 34 17 47 16 47 -5z"/>
<path d="M6116 4718 c-9 -35 -7 -68 4 -68 6 0 10 20 10 45 0 50 -4 57 -14 23z"/>
<path d="M159 4552 c16 -30 25 -34 96 -37 61 -3 63 -2 56 19 -7 16 -17 21 -47
22 -22 1 -56 4 -78 9 -36 7 -38 7 -27 -13z"/>
<path d="M1147 4541 c-21 -9 -36 -19 -32 -22 8 -9 85 11 85 22 0 16 -16 16
-53 0z"/>
<path d="M5796 4484 c-21 -21 -20 -34 2 -34 24 0 42 19 35 36 -7 18 -18 18
-37 -2z"/>
<path d="M5742 4448 c-15 -15 -16 -45 -2 -53 9 -6 11 -1 14 38 1 6 6 15 11 19
7 5 6 8 0 8 -6 0 -16 -5 -23 -12z"/>
<path d="M5485 4273 c-4 -32 -12 -64 -17 -70 -7 -9 -41 -13 -102 -13 -69 0
-97 -4 -112 -16 -10 -8 -14 -13 -7 -9 19 9 26 -37 21 -146 -4 -88 -3 -101 13
-113 15 -10 19 -32 25 -122 4 -60 11 -114 16 -120 10 -14 166 -18 186 -5 11 6
9 15 -7 42 -12 20 -21 51 -21 75 l0 41 -49 -5 c-58 -5 -69 6 -44 48 13 23 24
30 48 30 17 0 36 5 42 11 15 15 51 -5 63 -35 4 -13 8 -47 8 -77 0 -30 3 -73 7
-96 6 -39 9 -43 43 -48 20 -4 48 -10 62 -15 48 -16 100 -21 119 -10 19 10 19
12 4 48 -12 28 -16 65 -14 152 2 106 0 117 -18 134 -17 16 -21 32 -22 90 0 39
-6 94 -13 121 l-11 50 -88 0 c-100 0 -107 5 -107 73 0 61 -17 52 -25 -15z m14
-102 c11 -7 11 -15 2 -41 -6 -18 -11 -62 -11 -96 0 -62 -1 -64 -26 -64 l-27 0
5 75 c3 41 1 72 -4 69 -13 -8 -10 5 9 37 18 30 29 35 52 20z"/>
<path d="M2070 4245 c-6 -22 -10 -56 -8 -75 l3 -35 24 46 c22 42 23 47 8 74
l-15 29 -12 -39z"/>
<path d="M5954 4245 c-5 -11 -21 -15 -64 -15 -33 0 -62 -5 -66 -11 -4 -7 7
-22 24 -36 26 -20 30 -28 22 -47 -9 -26 -3 -39 23 -49 21 -8 21 -17 3 -43 -13
-17 -12 -22 17 -52 l32 -33 3 -139 c5 -151 0 -170 -44 -170 -13 0 -24 -3 -24
-7 1 -14 49 -43 55 -34 3 6 27 7 54 4 27 -3 70 -2 95 1 42 7 46 10 46 35 0 20
-6 30 -20 34 -12 3 -20 14 -20 26 0 11 9 25 20 31 19 10 20 21 20 254 l0 243
-26 12 c-19 8 -35 9 -63 0 -29 -8 -43 -8 -60 0 -17 10 -22 9 -27 -4z"/>
<path d="M2126 4173 c-6 -14 -5 -15 5 -6 7 7 10 15 7 18 -3 3 -9 -2 -12 -12z"/>
<path d="M5190 4160 c0 -5 9 -10 21 -10 11 0 17 5 14 10 -3 6 -13 10 -21 10
-8 0 -14 -4 -14 -10z"/>
<path d="M2101 4137 c-16 -20 -25 -74 -13 -81 6 -3 8 -16 6 -29 -4 -20 -4 -20
4 -2 10 22 25 125 19 125 -3 0 -10 -6 -16 -13z"/>
<path d="M2255 4093 c-19 -15 -19 -15 3 -8 19 5 23 3 20 -11 -2 -14 8 -22 42
-34 25 -8 48 -19 51 -23 3 -5 10 -8 15 -6 5 1 15 -10 22 -25 7 -14 24 -33 36
-42 21 -13 31 -13 102 7 93 25 111 41 88 78 l-15 26 20 -23 c21 -24 41 -22 41
3 0 18 -10 23 -51 29 -19 3 -75 14 -126 25 -108 24 -219 26 -248 4z"/>
<path d="M2227 4063 c-4 -3 -7 -13 -7 -22 1 -13 3 -13 11 2 11 19 8 33 -4 20z"/>
<path d="M2088 3965 c-2 -19 0 -35 4 -35 4 0 8 16 8 35 0 19 -2 35 -4 35 -2 0
-6 -16 -8 -35z"/>
<path d="M2624 3915 c-4 -8 -12 -15 -20 -15 -8 0 -14 -4 -14 -10 0 -5 7 -10
16 -10 10 0 14 -6 10 -15 -9 -24 -2 -18 34 28 19 23 25 35 15 27 -11 -8 -25
-22 -32 -30 -15 -18 -17 -6 -3 21 6 10 8 19 5 19 -3 0 -8 -7 -11 -15z"/>
<path d="M2240 3902 c0 -7 15 -27 33 -45 17 -18 25 -24 16 -13 -9 12 -23 32
-32 46 -10 13 -17 19 -17 12z"/>
<path d="M2446 3809 c-19 -19 -19 -19 3 -19 23 0 91 25 91 34 0 15 -77 3 -94
-15z"/>
<path d="M2510 3785 c-19 -7 -52 -14 -72 -14 -37 -1 -38 -2 -38 -40 0 -22 -5
-43 -10 -46 -8 -5 -7 -11 1 -21 7 -8 16 -11 23 -6 6 5 32 16 59 26 35 13 47
23 47 38 0 11 9 33 21 49 23 32 20 34 -31 14z"/>
<path d="M2090 3710 c0 -5 5 -10 11 -10 5 0 7 5 4 10 -3 6 -8 10 -11 10 -2 0
-4 -4 -4 -10z"/>
<path d="M5810 3650 c0 -5 5 -10 10 -10 6 0 10 5 10 10 0 6 -4 10 -10 10 -5 0
-10 -4 -10 -10z"/>
<path d="M5230 3595 c0 -8 5 -15 10 -15 6 0 10 7 10 15 0 8 -4 15 -10 15 -5 0
-10 -7 -10 -15z"/>
<path d="M5319 3554 c-2 -72 3 -140 12 -148 5 -6 9 -35 10 -65 1 -120 23 -166
62 -127 18 18 83 11 110 -12 15 -14 19 -14 31 -1 33 34 27 65 -19 99 -11 8
-17 11 -13 6 4 -5 0 -15 -8 -23 -8 -9 -13 -22 -10 -29 3 -8 1 -14 -4 -14 -6 0
-10 4 -10 9 0 5 -9 7 -20 4 -16 -4 -20 0 -20 20 0 14 -2 31 -3 39 -2 7 -2 10
0 6 5 -8 33 15 33 26 0 3 -7 6 -15 6 -8 0 -15 5 -15 10 0 15 31 12 51 -6 22
-20 35 -13 42 23 5 28 -10 73 -25 73 -4 0 -8 7 -8 16 0 8 -4 13 -8 10 -5 -3
-18 2 -30 10 -21 14 -21 16 -6 39 18 28 17 29 -51 39 -22 3 -50 9 -62 12 -20
5 -23 2 -24 -22z"/>
<path d="M5681 3551 c-12 -8 -19 -28 -20 -63 -1 -11 -11 -18 -33 -20 -23 -2
-37 -11 -47 -30 -14 -24 -14 -28 2 -46 9 -10 17 -31 17 -46 0 -15 7 -40 15
-57 11 -20 14 -41 9 -64 -6 -33 -4 -36 32 -51 22 -9 57 -19 79 -21 22 -3 56
-15 75 -27 25 -15 51 -21 93 -20 31 0 60 4 65 8 9 10 -26 35 -58 42 -41 9 -54
19 -74 60 -26 55 -31 104 -13 146 13 31 13 43 0 99 -16 69 -24 79 -66 79 -16
0 -36 4 -46 9 -9 5 -23 6 -30 2z m19 -312 c0 -20 -4 -29 -12 -27 -15 5 -22 33
-14 54 9 24 26 6 26 -27z"/>
<path d="M3380 3544 c0 -8 50 -215 56 -234 5 -13 6 -13 13 0 11 19 -16 163
-38 208 -14 28 -31 43 -31 26z"/>
<path d="M5480 3526 c0 -14 5 -28 10 -31 6 -4 10 7 10 24 0 17 -4 31 -10 31
-5 0 -10 -11 -10 -24z"/>
<path d="M5598 3513 c5 -21 7 -23 10 -9 2 10 0 22 -6 28 -6 6 -7 0 -4 -19z"/>
<path d="M5993 3478 c4 -36 2 -61 -8 -78 -12 -22 -11 -27 3 -43 14 -15 17 -41
17 -129 1 -103 3 -112 24 -129 14 -11 39 -19 62 -19 l39 0 0 165 0 165 -35 0
c-33 0 -35 2 -35 33 0 18 5 38 12 45 18 18 -9 42 -50 42 l-35 0 6 -52z"/>
<path d="M6105 3500 c-19 -8 -19 -9 3 -9 12 -1 22 4 22 9 0 6 -1 10 -2 9 -2 0
-12 -4 -23 -9z"/>
<path d="M2220 3465 c0 -9 9 -15 21 -15 18 0 19 2 9 15 -7 8 -16 15 -21 15 -5
0 -9 -7 -9 -15z"/>
<path d="M5935 3400 c-3 -5 1 -10 9 -10 9 0 16 5 16 10 0 6 -4 10 -9 10 -6 0
-13 -4 -16 -10z"/>
<path d="M3558 3168 c5 -5 16 -8 23 -6 8 3 3 7 -10 11 -17 4 -21 3 -13 -5z"/>
<path d="M4090 3124 c-11 -25 -20 -50 -20 -56 0 -28 -117 -247 -178 -335 -12
-16 -12 -16 -7 7 4 14 9 36 12 50 8 37 24 54 34 38 7 -10 9 -10 9 0 0 7 -7 15
-15 19 -14 5 -14 8 -2 22 12 13 12 21 2 45 l-13 30 -25 -50 c-36 -71 -61 -180
-65 -285 -1 -27 -6 -38 -13 -33 -8 5 -10 -1 -5 -19 3 -14 2 -29 -4 -32 -5 -3
-10 -19 -10 -34 0 -15 -5 -32 -10 -37 -6 -6 -12 -37 -15 -69 -3 -40 -12 -66
-25 -80 -11 -12 -25 -48 -31 -81 -7 -32 -14 -66 -17 -74 -3 -8 -4 -19 -3 -24
1 -5 -5 -16 -14 -26 -9 -9 -20 -42 -25 -73 -20 -124 -74 -251 -133 -314 -16
-17 -55 -41 -86 -53 -80 -31 -86 -35 -87 -59 -1 -15 6 -23 25 -27 14 -3 34 -8
43 -11 10 -2 39 -25 66 -51 26 -26 64 -58 84 -72 40 -26 64 -65 48 -75 -6 -4
-10 -2 -10 4 0 6 -19 20 -42 32 -24 12 -50 28 -59 35 -14 12 -18 9 -37 -30
-12 -24 -22 -50 -22 -59 0 -9 -33 -29 -92 -55 -118 -50 -148 -58 -148 -36 0
39 -75 69 -99 40 -17 -20 -2 -49 21 -42 11 2 31 0 45 -5 l25 -9 -25 -20 c-14
-11 -30 -20 -36 -20 -6 0 -11 -4 -11 -10 0 -5 7 -10 15 -10 8 0 15 -7 15 -16
0 -13 -19 -15 -139 -13 -76 1 -143 -1 -150 -5 -6 -4 -11 -17 -11 -29 0 -18 13
-27 71 -50 l72 -27 64 35 c73 40 89 43 98 15 8 -24 31 -37 62 -35 12 1 21 -3
20 -9 -1 -6 15 -12 36 -14 30 -3 40 -9 47 -28 12 -30 35 -40 54 -25 8 7 37 14
66 18 50 6 52 5 48 -18 -5 -37 -38 -57 -129 -78 -46 -11 -104 -31 -129 -44
-25 -14 -63 -30 -85 -37 -22 -7 -44 -16 -50 -21 -5 -5 -17 -9 -27 -9 -31 0
-20 -14 30 -38 51 -25 115 -44 147 -43 11 0 29 12 40 26 12 14 29 25 38 25 10
0 20 8 23 18 11 36 21 46 58 58 75 27 182 -38 188 -114 l3 -37 28 29 c15 16
30 26 34 22 4 -4 8 -33 9 -64 1 -31 4 -64 6 -72 2 -11 -4 -14 -27 -11 -16 2
-39 8 -49 13 -29 16 -186 23 -186 9 0 -6 -6 -11 -14 -11 -7 0 -19 -7 -26 -15
-7 -8 -18 -15 -24 -15 -6 1 -1 9 12 19 12 11 22 23 22 29 0 11 -107 45 -193
62 -32 7 -89 30 -129 52 -59 34 -74 39 -89 30 -10 -7 -26 -12 -34 -12 -9 0
-14 -4 -11 -8 2 -4 -10 -14 -27 -21 -18 -7 -40 -17 -49 -22 -23 -12 -48 -12
-48 1 0 5 -9 6 -21 2 -11 -5 -20 -12 -19 -16 2 -9 -19 -26 -32 -26 -4 0 -23
14 -42 30 -35 31 -35 31 -46 10 -7 -13 -9 -38 -5 -61 7 -39 7 -40 43 -34 71
10 138 27 227 56 50 16 93 29 97 29 4 0 5 -20 1 -45 -5 -38 -3 -46 13 -52 11
-3 22 -11 27 -17 5 -8 10 -7 15 2 13 20 49 -16 56 -55 5 -31 5 -32 -50 -44
-43 -10 -60 -10 -75 -1 -10 7 -25 12 -32 12 -8 0 -19 10 -26 23 -16 29 -81 33
-81 5 0 -45 -39 -65 -68 -36 -10 10 -17 10 -32 0 -11 -6 -27 -12 -35 -12 -9 0
-27 -7 -41 -16 -24 -16 -26 -16 -49 6 -14 13 -25 29 -25 35 0 7 -21 10 -64 7
-63 -4 -64 -4 -122 42 -33 25 -62 46 -66 46 -5 0 -8 -15 -8 -34 0 -46 -37 -76
-131 -107 -86 -28 -192 -32 -282 -10 -31 8 -59 12 -62 10 -2 -3 -5 -21 -7 -42
-1 -20 -6 -37 -10 -37 -4 0 -8 -6 -8 -14 0 -8 -7 -22 -16 -30 -22 -23 2 -21
57 4 48 21 89 26 89 9 0 -5 -30 -24 -67 -42 -66 -31 -72 -32 -213 -33 -80 -1
-173 -5 -206 -9 -37 -4 -82 -3 -114 4 -44 10 -57 9 -76 -4 -13 -9 -24 -21 -23
-28 0 -9 2 -9 5 0 4 8 19 10 47 5 53 -7 89 -6 202 6 50 6 144 11 210 11 89 1
137 6 185 21 71 22 93 25 70 10 -26 -17 -111 -38 -195 -49 -44 -6 -152 -20
-240 -32 -172 -24 -302 -30 -322 -16 -21 15 -15 -7 8 -31 19 -21 27 -22 115
-18 76 4 96 2 101 -10 3 -8 18 -14 34 -14 24 0 29 4 29 23 0 23 3 24 77 25 43
1 98 5 123 10 41 8 47 6 63 -14 9 -13 17 -29 18 -36 1 -7 4 -2 8 12 7 25 7 25
166 33 148 7 400 3 435 -6 8 -2 22 -7 31 -11 9 -4 20 -6 25 -5 21 5 66 -15 84
-38 12 -16 32 -26 56 -29 21 -3 43 -9 49 -14 6 -5 49 -14 96 -19 169 -21 189
-24 189 -33 0 -11 1246 -3 1330 10 36 5 59 10 51 10 -8 1 -11 5 -8 8 4 4 13 1
22 -6 9 -7 15 -8 15 -2 0 6 20 9 50 8 28 -2 53 0 55 4 2 4 16 5 30 3 38 -8
117 7 112 20 -2 8 -27 11 -73 10 -38 -2 -134 -5 -213 -8 -106 -3 -149 -1 -160
8 -8 6 -12 7 -9 2 4 -6 -1 -11 -11 -11 -13 0 -16 7 -13 28 2 15 7 28 11 29 3
0 42 4 86 10 44 5 112 11 150 14 39 2 70 5 70 6 0 0 18 3 40 4 22 2 67 6 100
9 48 4 188 15 252 19 6 0 9 6 6 14 -3 7 2 13 12 13 9 0 13 -4 10 -10 -4 -6 7
-10 25 -10 17 0 29 4 25 10 -3 5 24 8 72 6 83 -3 119 5 138 31 15 20 55 28 55
10 0 -6 5 -4 11 6 7 11 18 16 35 13 19 -4 23 -2 16 7 -7 8 -6 16 3 24 9 8 16
9 20 3 4 -6 11 -8 16 -4 7 4 6 10 0 18 -7 9 -7 16 0 23 8 8 7 13 -2 18 -7 5
-10 4 -6 -2 4 -6 0 -17 -9 -24 -13 -10 -17 -10 -25 2 -7 12 -9 12 -9 -1 0 -13
-1 -13 -10 0 -7 11 -10 11 -10 2 0 -7 -5 -10 -10 -7 -8 5 -8 11 0 20 8 9 8 15
0 20 -6 3 -8 10 -5 15 3 5 0 12 -6 16 -8 5 -9 3 -4 -6 6 -9 4 -11 -4 -5 -9 5
-9 11 -3 17 12 12 4 40 -9 32 -5 -3 -6 -10 -3 -16 4 -6 2 -8 -4 -4 -23 14 -21
-14 3 -30 25 -17 25 -40 -2 -30 -9 4 -11 2 -7 -6 5 -7 3 -8 -6 -3 -8 5 -11 4
-6 -3 4 -6 13 -9 20 -6 17 7 30 -12 16 -21 -8 -5 -7 -11 1 -21 6 -8 10 -14 8
-15 -37 -8 -59 -3 -59 14 0 11 -5 16 -12 12 -7 -4 -5 0 6 9 10 8 15 19 12 24
-3 5 1 15 9 22 12 10 13 16 4 26 -6 8 -16 11 -23 7 -17 -11 -37 -12 -30 -2 3
5 9 7 14 4 4 -3 13 2 19 9 14 17 6 22 -35 21 -19 -1 -31 4 -31 11 0 7 5 10 11
6 19 -11 40 -11 53 0 7 6 13 7 13 3 0 -4 6 -2 14 4 11 9 17 8 28 -7 7 -10 21
-18 31 -16 9 1 15 -2 12 -6 -3 -5 -1 -11 5 -15 6 -4 8 -10 6 -14 -3 -4 0 -13
5 -21 8 -13 10 -13 18 -1 11 17 -25 75 -40 66 -5 -4 -9 -1 -9 4 0 6 -7 11 -16
11 -8 0 -12 5 -9 10 4 6 2 9 -3 8 -5 -2 -33 17 -62 42 -30 25 -65 53 -79 62
-28 19 -26 21 36 18 23 -1 54 5 70 13 32 16 60 11 113 -22 19 -12 43 -24 53
-27 9 -4 17 -11 17 -17 0 -6 3 -7 6 -4 6 6 24 -6 82 -54 6 -5 12 -7 12 -3 0 3
20 -10 44 -30 24 -20 48 -36 53 -36 5 0 32 -15 60 -34 29 -19 57 -37 62 -40 5
-4 13 -1 17 5 4 7 3 9 -3 6 -6 -4 -14 0 -17 9 -4 9 -9 14 -12 11 -4 -3 -15 4
-25 16 -10 12 -18 18 -19 12 0 -5 -7 1 -16 13 -8 12 -19 20 -24 17 -5 -3 -11
-1 -15 5 -3 5 -16 10 -28 11 -12 0 -16 3 -9 6 8 3 -3 16 -29 35 -22 16 -47 27
-54 24 -8 -3 -12 0 -9 7 4 12 -34 43 -42 34 -3 -2 -20 10 -38 27 -18 17 -49
42 -69 56 -36 25 -49 44 -24 34 8 -3 33 4 58 14 31 13 51 17 67 11 15 -6 21
-5 17 1 -3 6 -10 10 -16 10 -5 0 -29 15 -54 34 l-44 34 82 43 c45 23 94 48
109 56 28 15 61 57 51 67 -17 17 -95 4 -147 -25 -31 -16 -56 -27 -56 -23 0 4
-14 -5 -31 -22 -19 -18 -28 -22 -24 -11 5 12 2 17 -9 17 -8 0 -50 11 -92 25
-54 18 -99 25 -153 25 -105 0 -304 19 -316 31 -11 11 -35 12 -35 1 0 -18 151
-94 236 -118 116 -34 131 -49 39 -40 -38 4 -113 9 -165 12 -103 5 -168 18
-215 43 -27 14 -230 29 -397 30 -21 0 -47 5 -57 11 -26 13 -51 3 -51 -21 0
-10 -4 -19 -9 -19 -5 0 -10 31 -13 68 -5 98 -77 240 -164 327 -44 44 -125 86
-172 89 -19 1 -37 7 -39 13 -3 7 49 13 159 18 160 7 185 12 220 43 17 14 16
16 -2 42 -11 16 -20 44 -20 64 0 19 -5 47 -12 61 -10 23 -10 28 6 37 12 7 14
13 7 21 -5 7 -16 30 -24 52 -18 48 -72 178 -93 223 -10 21 -22 32 -36 32 -15
0 -18 3 -10 13 6 6 13 29 17 50 8 39 14 44 33 25 9 -9 12 -9 12 0 0 7 -6 15
-14 18 -10 4 -19 54 -9 54 6 0 113 -162 113 -171 0 -6 24 -35 54 -64 30 -30
64 -75 77 -100 13 -26 32 -51 42 -57 10 -5 33 -26 52 -46 86 -96 128 -133 137
-124 9 9 -55 82 -73 82 -4 0 -20 17 -33 37 -24 34 -24 38 -9 55 18 20 7 23
-34 7 -66 -25 1 14 122 70 72 33 125 61 119 61 -6 0 -72 -27 -145 -60 -86 -38
-137 -56 -143 -50 -6 6 -5 14 5 22 8 7 23 23 33 36 17 20 18 22 2 22 -9 0 -28
-11 -42 -25 l-25 -26 4 46 5 45 -40 0 c-38 0 -40 2 -34 24 3 14 1 30 -7 38 -7
7 -24 31 -37 53 -13 22 -27 42 -30 45 -9 7 -31 101 -31 127 0 12 -6 38 -15 58
-17 40 -13 87 12 163 18 55 18 66 -2 58 -8 -3 -2 10 15 31 17 21 31 48 31 60
0 43 77 98 131 94 32 -3 149 30 131 37 -13 4 -163 -21 -221 -38 -29 -8 -32 -7
-27 8 37 113 63 174 87 206 16 22 29 45 29 51 0 7 23 33 51 60 27 26 48 50 45
53 -10 9 -75 -48 -104 -91 -25 -37 -72 -129 -72 -141 0 -20 -80 -167 -105
-193 -43 -44 -66 -44 -49 1 3 9 14 16 24 16 15 0 18 10 19 70 2 83 8 101 71
205 30 49 64 125 88 198 21 64 37 117 35 117 -2 0 -13 -21 -23 -46z m-296
-1274 c12 -24 13 -43 6 -86 -11 -65 -5 -84 24 -84 32 0 42 -11 49 -53 6 -38 6
-38 -16 -24 -12 8 -48 29 -80 47 -31 18 -62 40 -67 50 -10 19 -4 50 10 50 5 0
6 8 3 19 -3 11 2 21 11 24 8 3 20 24 26 46 6 23 13 41 15 41 2 0 10 -14 19
-30z m99 -106 c9 -10 -15 -54 -30 -54 -23 0 -28 32 -8 46 21 15 29 17 38 8z
m-190 -501 c39 -8 97 -67 97 -99 0 -30 -23 -56 -42 -49 -8 3 -18 -7 -26 -25
-8 -17 -24 -33 -38 -36 -31 -8 -181 14 -214 32 -26 14 -201 71 -234 76 -41 6
-23 24 49 47 41 13 75 29 75 36 0 7 23 23 52 35 41 18 64 21 107 17 29 -3 59
-11 64 -16 16 -16 27 -13 27 4 0 9 6 22 13 30 10 11 14 8 27 -16 9 -20 24 -32
43 -36z m66 -410 c1 -17 -19 -16 -44 3 -19 14 -19 15 3 20 12 4 22 11 23 18 1
13 17 -24 18 -41z m-8 -90 c27 -10 52 -26 55 -35 3 -10 10 -18 15 -18 16 0 10
-97 -7 -114 -8 -9 -19 -16 -22 -16 -8 0 -82 49 -82 54 0 15 32 76 40 76 6 0
10 5 10 10 0 6 -7 10 -15 10 -8 0 -15 4 -15 9 0 5 -9 13 -20 16 -11 3 -20 11
-20 16 0 12 5 12 61 -8z m1070 -320 c13 -16 12 -17 -3 -4 -17 13 -22 21 -14
21 2 0 10 -8 17 -17z m234 -23 c4 -6 3 -10 -2 -9 -37 6 -40 -14 -8 -44 14 -13
9 -12 -14 4 l-34 22 23 19 c26 21 27 21 35 8z m-951 -11 l41 -1 -36 -10 c-26
-7 -50 -5 -90 6 l-54 16 49 -5 c27 -3 67 -5 90 -6z m744 -14 c1 -13 -3 -27
-10 -31 -7 -4 -8 -3 -4 4 4 7 1 12 -6 12 -8 0 -14 -9 -15 -20 -1 -11 2 -18 8
-15 5 4 9 1 9 -4 0 -17 -20 -13 -27 5 -3 8 -11 13 -19 10 -7 -3 -18 1 -24 9
-9 11 -7 13 13 10 16 -3 30 3 45 20 27 31 27 31 30 0z m115 13 c-2 -5 -10 -8
-18 -8 -8 0 -16 3 -18 8 -3 4 5 7 18 7 13 0 21 -3 18 -7z m-56 -33 c0 -8 -4
-12 -9 -9 -5 3 -6 10 -3 15 9 13 12 11 12 -6z m-37 -43 c-19 -7 -10 -20 9 -15
14 3 19 0 17 -11 -1 -8 -6 -19 -11 -23 -4 -4 -5 -2 -1 5 4 7 1 12 -8 12 -20 0
-26 12 -19 39 4 17 8 19 14 9 5 -7 4 -14 -1 -16z m-223 3 c0 -8 -4 -12 -9 -9
-5 3 -6 10 -3 15 9 13 12 11 12 -6z m65 -15 c-12 -12 -22 -16 -22 -10 0 7 -7
4 -16 -4 -8 -9 -17 -16 -19 -16 -7 0 7 30 14 31 30 3 46 10 49 19 2 6 7 9 10
6 3 -4 -4 -15 -16 -26z m101 3 c21 -20 22 -29 1 -37 -14 -5 -15 -4 -4 9 14 17
7 19 -20 5 -12 -7 -17 -17 -14 -28 5 -14 4 -14 -4 -2 -6 8 -8 19 -4 25 11 17
11 35 0 42 -6 3 -8 1 -5 -4 4 -6 0 -16 -7 -22 -17 -14 -29 0 -20 24 8 19 48
13 77 -12z m202 -10 c0 -14 -6 -27 -13 -29 -7 -1 -8 0 -2 3 5 2 7 9 4 14 -5 9
1 39 9 39 1 0 3 -12 2 -27z m40 17 c-3 -5 -12 -10 -18 -10 -7 0 -6 4 3 10 19
12 23 12 15 0z m145 -4 c0 -6 5 -4 10 4 6 9 10 10 10 3 0 -6 -5 -15 -10 -18
-6 -4 -7 -11 -4 -17 4 -7 2 -8 -5 -4 -6 4 -20 2 -29 -6 -15 -12 -16 -11 -4 4
9 11 10 18 2 23 -6 3 -8 10 -6 14 8 12 36 9 36 -3z m-466 -34 c2 -4 -4 -9 -15
-9 -11 -1 -17 2 -14 8 7 11 22 12 29 1z m124 -17 c-3 -3 -9 2 -12 12 -6 14 -5
15 5 6 7 -7 10 -15 7 -18z m242 1 c0 -20 -24 -36 -39 -27 -10 7 -8 10 8 16 14
4 20 12 17 21 -3 9 -1 12 4 9 6 -3 10 -12 10 -19z m-340 -21 c0 -2 -6 -5 -13
-8 -8 -3 -14 1 -14 8 0 7 6 11 14 8 7 -3 13 -6 13 -8z m254 -7 c-3 -4 3 -8 13
-9 11 0 13 -3 5 -6 -7 -3 -19 0 -27 7 -8 6 -18 9 -23 7 -4 -3 -14 -2 -21 3 -9
5 0 7 22 7 20 -1 33 -5 31 -9z m-244 -32 c0 -7 -40 -14 -44 -7 -3 4 6 8 20 9
13 1 24 0 24 -2z"/>
<path d="M3571 1163 c0 -6 -4 -20 -7 -30 -5 -14 -4 -15 5 -7 7 7 11 20 8 30
-3 11 -5 14 -6 7z"/>
<path d="M3608 3153 c7 -3 16 -2 19 1 4 3 -2 6 -13 5 -11 0 -14 -3 -6 -6z"/>
<path d="M3655 3150 c-14 -6 -4 -9 37 -9 31 -1 60 4 63 9 8 12 -71 12 -100 0z"/>
<path d="M3778 3143 c7 -3 16 -2 19 1 4 3 -2 6 -13 5 -11 0 -14 -3 -6 -6z"/>
<path d="M840 3079 c0 -33 4 -48 11 -44 6 4 8 9 5 12 -3 3 6 15 20 26 l26 20
-23 18 c-35 27 -39 24 -39 -32z"/>
<path d="M5363 3074 c-3 -9 1 -74 10 -143 10 -70 17 -153 17 -184 0 -69 15
-82 104 -90 33 -3 62 -11 66 -18 5 -6 16 -8 29 -4 19 6 21 11 15 38 -14 63
-20 147 -12 159 14 22 9 75 -7 82 -20 7 -45 66 -45 105 0 27 -4 31 -42 41 -24
6 -57 16 -74 21 -43 13 -54 11 -61 -7z"/>
<path d="M5743 3058 c-13 -6 -23 -15 -23 -20 0 -13 -80 -10 -81 5 -2 19 -20
-95 -20 -122 1 -14 9 -33 19 -44 14 -15 17 -38 18 -116 0 -53 3 -105 7 -116 7
-20 47 -35 175 -66 40 -10 46 -9 68 12 26 24 34 85 13 106 -5 5 -12 27 -14 48
-2 20 -8 42 -13 47 -7 7 -7 18 0 34 8 18 7 31 -6 58 -9 18 -16 45 -16 59 0 61
-12 84 -52 106 -45 24 -45 24 -75 9z"/>
<path d="M6055 2908 c4 -57 11 -121 15 -143 5 -22 7 -81 5 -131 -4 -90 -4 -92
26 -120 l29 -28 0 236 0 236 -34 26 c-19 14 -38 26 -41 26 -4 0 -4 -46 0 -102z"/>
<path d="M4239 2983 c-13 -16 -12 -17 4 -4 16 13 21 21 13 21 -2 0 -10 -8 -17
-17z"/>
<path d="M4545 2889 c-8 -12 -9 -11 28 -27 32 -14 38 2 10 24 -22 16 -30 17
-38 3z"/>
<path d="M5930 2820 c0 -24 25 -27 34 -4 9 23 8 24 -14 24 -13 0 -20 -7 -20
-20z"/>
<path d="M4505 2710 c-19 -8 -19 -9 3 -9 12 -1 22 4 22 9 0 6 -1 10 -2 9 -2 0
-12 -4 -23 -9z"/>
<path d="M4313 2634 c-95 -34 -233 -102 -233 -115 0 -4 26 6 58 21 178 87 363
121 458 85 25 -9 48 -14 51 -11 4 3 1 6 -5 6 -6 0 -17 6 -24 13 -51 49 -173
50 -305 1z"/>
<path d="M5404 2524 c3 -32 9 -136 13 -229 5 -151 4 -172 -11 -184 -19 -16
-22 -65 -3 -59 6 3 14 18 17 34 7 39 26 41 125 10 122 -38 139 -34 102 24 -22
35 -33 115 -16 125 5 4 5 14 -2 27 -6 12 -9 38 -6 59 3 24 0 45 -9 56 -7 10
-14 39 -14 65 0 26 -5 59 -12 73 -11 24 -16 26 -49 21 -27 -4 -42 -2 -53 10
-9 8 -32 18 -52 21 l-37 6 7 -59z m166 -203 c0 -14 -6 -17 -25 -13 -14 2 -25
11 -25 18 0 8 10 14 25 14 18 0 25 -5 25 -19z m10 -122 c0 -23 -4 -30 -17 -27
-9 2 -16 6 -15 11 1 4 2 16 2 27 0 11 7 20 15 20 10 0 15 -10 15 -31z"/>
<path d="M5973 2558 c2 -7 10 -13 17 -13 7 0 15 6 18 13 2 7 -5 12 -18 12 -13
0 -20 -5 -17 -12z"/>
<path d="M5677 2481 c-3 -15 -3 -38 0 -50 3 -11 0 -28 -7 -36 -10 -12 -10 -21
0 -45 7 -16 10 -41 6 -54 -4 -16 0 -30 10 -40 13 -14 15 -32 10 -106 l-5 -90
27 -14 c15 -7 45 -17 67 -20 68 -12 69 -13 66 -121 -2 -88 -1 -96 16 -93 16 3
18 14 18 83 l0 80 30 5 c34 6 33 -3 21 175 -5 61 -14 124 -22 140 -8 17 -17
68 -21 115 l-8 85 -42 9 c-40 8 -138 -3 -100 -11 21 -5 23 -43 2 -43 -8 0 -15
-9 -15 -20 0 -11 -7 -20 -15 -20 -14 0 -20 31 -18 88 1 24 -15 12 -20 -17z
m98 -290 c3 -5 1 -12 -5 -16 -5 -3 -10 1 -10 9 0 18 6 21 15 7z"/>
<path d="M1397 2493 c-4 -3 -7 -13 -7 -22 1 -13 3 -13 11 2 11 19 8 33 -4 20z"/>
<path d="M3964 2445 c-16 -12 -16 -14 -3 -15 9 0 22 7 29 15 16 19 0 19 -26 0z"/>
<path d="M6087 2405 c-19 -39 -23 -115 -7 -115 17 0 11 -38 -7 -43 -15 -3 -14
-6 6 -14 23 -9 25 -15 28 -109 1 -54 7 -121 12 -149 6 -36 9 21 10 208 1 206
-2 257 -12 257 -7 0 -21 -16 -30 -35z"/>
<path d="M4938 1973 c12 -2 32 -2 45 0 12 2 2 4 -23 4 -25 0 -35 -2 -22 -4z"/>
<path d="M5065 1956 c97 -23 134 -44 196 -109 33 -34 59 -65 59 -69 0 -5 5 -8
10 -8 17 0 -7 38 -57 91 -51 55 -139 98 -215 104 l-53 5 60 -14z"/>
<path d="M6002 1958 c8 -22 36 -34 50 -20 10 10 10 15 -2 22 -21 14 -52 12
-48 -2z"/>
<path d="M4625 1920 c-13 -6 -15 -9 -5 -9 8 0 22 4 30 9 18 12 2 12 -25 0z"/>
<path d="M3940 1881 c0 -20 25 -35 42 -25 5 3 2 14 -8 25 -22 24 -34 24 -34 0z"/>
<path d="M4450 1860 c-8 -5 -10 -10 -5 -10 6 0 17 5 25 10 8 5 11 10 5 10 -5
0 -17 -5 -25 -10z"/>
<path d="M2521 1792 c-1 -17 4 -23 16 -20 20 4 31 38 13 38 -6 0 -8 -4 -5 -10
3 -5 2 -10 -4 -10 -5 0 -12 6 -14 13 -3 6 -6 2 -6 -11z"/>
<path d="M4000 1803 c0 -9 84 -112 93 -113 13 0 7 35 -11 65 -16 26 -82 64
-82 48z"/>
<path d="M5098 1803 c7 -3 16 -2 19 1 4 3 -2 6 -13 5 -11 0 -14 -3 -6 -6z"/>
<path d="M6105 1790 c-3 -11 -11 -20 -17 -20 -6 0 -6 -6 2 -15 22 -27 40 -18
40 20 0 38 -15 47 -25 15z"/>
<path d="M5160 1785 c46 -18 64 -17 25 0 -16 8 -37 14 -45 14 -8 0 1 -7 20
-14z"/>
<path d="M5731 1786 c-10 -12 -8 -17 11 -30 30 -19 89 -29 106 -18 24 16 10
45 -23 47 -16 1 -42 5 -56 9 -18 5 -29 3 -38 -8z"/>
<path d="M5200 1747 c0 -2 19 -17 43 -32 23 -16 37 -22 30 -14 -12 15 -73 53
-73 46z"/>
<path d="M5907 1723 c-12 -11 -8 -23 7 -23 7 0 19 7 26 15 10 12 9 15 -7 15
-11 0 -23 -3 -26 -7z"/>
<path d="M338 1713 c17 -2 47 -2 65 0 17 2 3 4 -33 4 -36 0 -50 -2 -32 -4z"/>
<path d="M278 1703 c7 -3 16 -2 19 1 4 3 -2 6 -13 5 -11 0 -14 -3 -6 -6z"/>
<path d="M5985 1692 c-3 -8 -4 -16 -3 -17 34 -22 109 -62 126 -67 17 -5 22 -2
22 12 0 11 -8 20 -22 22 -32 5 -35 28 -3 28 20 0 26 4 23 18 -3 14 -15 17 -70
18 -51 1 -68 -3 -73 -14z"/>
<path d="M191 1675 c-30 -14 -52 -28 -49 -30 3 -3 31 8 64 25 72 36 60 40 -15
5z"/>
<path d="M146 1615 c-11 -8 -18 -17 -15 -19 2 -3 15 4 29 14 14 11 21 20 15
19 -5 0 -19 -6 -29 -14z"/>
<path d="M3298 1593 c7 -3 16 -2 19 1 4 3 -2 6 -13 5 -11 0 -14 -3 -6 -6z"/>
<path d="M2839 1561 c-29 -24 -33 -35 -34 -74 0 -25 -3 -43 -7 -41 -4 2 -9 0
-13 -6 -3 -5 4 -11 17 -14 13 -2 51 -9 85 -15 63 -12 163 -6 163 10 0 9 -88
116 -117 142 -32 28 -58 28 -94 -2z"/>
<path d="M15 1540 c-10 -11 -16 -22 -14 -24 2 -2 12 7 22 20 22 29 17 32 -8 4z"/>
<path d="M2560 1530 c-9 -6 -10 -10 -3 -10 6 0 15 5 18 10 8 12 4 12 -15 0z"/>
<path d="M2519 1493 c-13 -16 -12 -17 4 -4 9 7 17 15 17 17 0 8 -8 3 -21 -13z"/>
<path d="M45 1400 c-26 -33 -45 -65 -43 -71 2 -6 25 21 51 60 26 39 45 71 43
71 -3 0 -26 -27 -51 -60z"/>
<path d="M3050 1445 c0 -16 9 -19 34 -9 20 8 11 24 -15 24 -10 0 -19 -7 -19
-15z"/>
<path d="M2309 1353 c-13 -15 -12 -15 11 -3 34 17 36 20 18 20 -9 0 -22 -7
-29 -17z"/>
<path d="M4522 1231 c-34 -39 -71 -89 -81 -113 l-19 -44 29 4 c23 3 29 9 29
28 0 23 3 24 83 26 117 3 155 -1 187 -17 15 -8 49 -19 76 -26 32 -8 62 -25 88
-50 21 -21 43 -36 48 -33 5 3 25 -4 45 -16 33 -19 38 -20 52 -6 14 15 12 19
-19 46 -19 16 -31 29 -26 30 5 0 -10 14 -32 30 -23 17 -42 35 -42 40 0 6 -5
10 -11 10 -17 0 -107 61 -113 76 -3 8 -12 14 -20 14 -9 0 -18 11 -22 25 -3 14
-9 23 -14 20 -4 -2 -22 0 -41 4 -19 5 -56 12 -84 15 l-50 6 -63 -69z"/>
<path d="M4307 1225 c12 -16 34 -41 49 -55 l28 -25 -21 30 c-12 17 -34 41 -49
55 l-28 25 21 -30z"/>
<path d="M3033 1195 c-3 -9 -3 -19 1 -22 3 -4 6 1 6 10 0 8 6 18 13 20 9 4 9
6 -1 6 -7 1 -15 -6 -19 -14z"/>
<path d="M4560 1061 c0 -10 24 -21 43 -21 7 0 3 7 -7 15 -22 17 -36 19 -36 6z"/>
<path d="M2193 985 c0 -27 2 -38 4 -22 2 15 2 37 0 50 -2 12 -4 0 -4 -28z"/>
<path d="M2678 933 c7 -3 16 -2 19 1 4 3 -2 6 -13 5 -11 0 -14 -3 -6 -6z"/>
<path d="M2182 825 c-1 -70 -6 -115 -14 -123 -8 -8 -9 -12 -1 -12 6 0 20 -3
30 -7 15 -6 16 -4 6 8 -8 9 -14 59 -16 130 l-3 114 -2 -110z"/>
<path d="M4470 916 c0 -18 6 -19 35 -6 11 5 15 9 8 9 -6 1 -18 4 -27 7 -11 4
-16 1 -16 -10z"/>
<path d="M2955 821 c-6 -11 9 -23 19 -14 9 9 7 23 -3 23 -6 0 -12 -4 -16 -9z"/>
<path d="M1055 730 c19 -8 19 -9 1 -9 -11 -1 -17 -4 -13 -7 3 -4 27 -3 53 1
56 8 42 25 -21 24 -31 0 -36 -2 -20 -9z"/>
<path d="M1509 730 c-24 -15 -3 -22 46 -15 25 4 45 8 43 10 -10 8 -77 12 -89
5z"/>
<path d="M85 715 c6 -3 82 -19 170 -35 88 -16 192 -37 230 -45 39 -9 90 -20
115 -25 25 -6 54 -14 65 -19 83 -39 258 -77 316 -69 16 3 31 0 33 -6 2 -6 5
-1 5 12 1 12 -7 34 -16 48 -16 25 -16 27 8 45 l24 20 -40 -6 c-22 -3 -66 -15
-97 -27 -72 -26 -141 -21 -225 15 -87 38 -201 60 -403 77 -69 6 -141 13 -160
15 -19 3 -30 3 -25 0z"/>
<path d="M1296 678 c3 -4 14 -8 24 -8 10 0 21 4 24 8 3 5 -8 9 -24 9 -16 0
-27 -4 -24 -9z"/>
<path d="M1143 653 c9 -2 23 -2 30 0 6 3 -1 5 -18 5 -16 0 -22 -2 -12 -5z"/>
<path d="M1225 650 c-16 -7 -17 -9 -3 -9 9 -1 20 4 23 9 7 11 7 11 -20 0z"/>
<path d="M2129 631 c-19 -10 -36 -27 -38 -37 -1 -11 -10 -26 -18 -36 -21 -23
-4 -29 60 -18 30 5 81 6 111 3 31 -3 56 -3 56 0 0 4 -18 16 -40 27 -21 11 -44
29 -50 40 -18 35 -43 41 -81 21z"/>
<path d="M1996 567 c3 -8 -5 -18 -18 -25 -21 -10 -19 -11 19 -11 53 -1 63 13
24 34 -24 12 -29 12 -25 2z"/>
<path d="M5145 440 c-4 -6 -11 -7 -17 -4 -7 4 -8 2 -4 -5 6 -9 11 -9 22 0 14
11 18 19 10 19 -3 0 -8 -5 -11 -10z"/>
<path d="M5192 391 c16 -26 27 -27 24 -3 -2 9 -11 19 -20 20 -15 3 -16 1 -4
-17z"/>
<path d="M1650 368 c-19 -10 -45 -18 -57 -18 -35 0 -74 -22 -71 -39 3 -15 29
-17 113 -5 11 1 52 3 91 3 l71 1 -1 34 c-1 31 -3 33 -26 24 -14 -5 -29 -15
-35 -22 -5 -7 -20 -15 -33 -18 -28 -8 -40 15 -22 37 19 22 10 23 -30 3z"/>
<path d="M5673 323 c9 -2 14 -9 11 -15 -4 -7 -2 -8 5 -4 15 10 4 26 -17 25
-15 -1 -15 -2 1 -6z"/>
<path d="M5716 301 c-3 -4 3 -16 13 -25 13 -12 21 -14 26 -6 4 7 -2 14 -14 17
-11 3 -18 9 -15 14 3 5 3 9 0 9 -3 0 -7 -4 -10 -9z"/>
<path d="M5389 272 l-13 -30 -19 24 c-10 13 -23 21 -28 18 -6 -3 -5 -12 2 -21
10 -12 10 -16 -2 -24 -10 -6 -5 -8 16 -6 17 2 36 6 42 10 7 4 14 4 17 -1 2 -4
22 -8 43 -9 31 -1 33 0 13 6 -14 4 -25 14 -25 24 0 9 -4 16 -9 16 -5 0 -12 5
-16 11 -5 8 -12 2 -21 -18z m41 2 c0 -8 -19 -13 -24 -6 -3 5 1 9 9 9 8 0 15
-2 15 -3z"/>
<path d="M5256 245 c-3 -8 0 -17 6 -21 6 -4 8 -3 4 4 -3 5 -1 12 6 14 8 3 9 6
1 11 -6 4 -13 0 -17 -8z"/>
<path d="M5770 250 c19 -13 30 -13 30 0 0 6 -10 10 -22 10 -19 0 -20 -2 -8
-10z"/>
<path d="M5216 233 c-6 -14 -5 -15 5 -6 7 7 10 15 7 18 -3 3 -9 -2 -12 -12z"/>
<path d="M5815 220 c-3 -5 1 -10 9 -10 8 0 20 -9 25 -19 9 -15 6 -20 -12 -26
-12 -4 -40 -6 -61 -5 -30 1 -38 -1 -33 -13 5 -13 2 -13 -24 0 -18 9 -37 12
-51 7 -36 -12 -48 -13 -48 -3 0 14 -26 11 -39 -5 -13 -15 -4 -49 10 -40 6 3
40 8 77 10 37 3 83 8 102 11 19 4 40 5 45 4 23 -7 120 0 129 9 7 7 6 10 -3 10
-7 0 -9 5 -6 10 3 6 -3 10 -14 10 -12 0 -21 3 -21 8 0 7 -62 52 -73 52 -3 0
-9 -4 -12 -10z"/>
<path d="M5429 139 c-7 -5 -31 -9 -52 -9 -23 0 -36 -4 -32 -10 3 -5 -1 -10
-10 -10 -9 0 -14 -4 -10 -9 3 -5 19 -9 35 -9 24 1 28 4 19 15 -9 10 -6 13 17
13 22 0 26 -3 14 -10 -12 -8 -11 -10 8 -10 12 0 31 5 41 12 11 6 26 8 37 3 31
-13 63 0 64 27 0 6 -42 2 -68 -7 -7 -3 -21 -1 -31 4 -10 6 -23 6 -32 0z"/>
<path d="M5197 124 c-4 -4 -21 -8 -39 -9 -18 -2 -39 -3 -45 -4 -7 0 -13 -9
-13 -18 0 -15 -2 -16 -10 -3 -5 8 -12 11 -17 7 -13 -14 19 -25 48 -17 15 5 31
5 35 2 4 -4 4 -2 0 5 -8 14 10 27 19 13 3 -5 17 -10 30 -10 18 0 22 4 18 20
-5 20 -15 25 -26 14z"/>
<path d="M5255 120 c-18 -8 -18 -9 5 -10 l25 -2 -25 -7 c-24 -7 -25 -7 -3 -13
20 -5 53 17 53 35 0 9 -30 8 -55 -3z"/>
<path d="M4920 92 c-25 -2 -49 -7 -54 -12 -5 -5 -18 -4 -31 2 -16 7 -38 7 -71
0 -27 -6 -52 -8 -56 -6 -4 3 -8 1 -8 -4 0 -6 -9 -8 -20 -5 -12 3 -20 0 -20 -7
0 -9 9 -10 33 -5 17 4 47 7 65 6 23 -1 31 2 26 11 -5 8 -2 9 12 4 30 -12 64
-14 70 -5 3 5 13 6 22 1 22 -9 50 -8 81 5 32 13 10 19 -49 15z"/>
<path d="M5030 85 c0 -9 6 -12 15 -9 8 4 15 10 15 15 0 5 -7 9 -15 9 -8 0 -15
-7 -15 -15z"/>
<path d="M4616 83 c-10 -10 -7 -43 4 -43 5 0 14 9 19 19 8 14 7 20 -3 24 -8 3
-17 3 -20 0z"/>
<path d="M5988 53 c23 -2 59 -2 80 0 20 2 1 4 -43 4 -44 0 -61 -2 -37 -4z"/>
<path d="M5630 39 c-69 -5 -150 -13 -180 -18 -54 -10 -54 -10 20 -6 41 3 130
8 198 12 67 3 122 10 122 15 0 4 -8 7 -17 7 -10 -1 -74 -6 -143 -10z"/>
<path d="M5828 43 c6 -2 18 -2 25 0 6 3 1 5 -13 5 -14 0 -19 -2 -12 -5z"/>
<path d="M5893 43 c9 -2 25 -2 35 0 9 3 1 5 -18 5 -19 0 -27 -2 -17 -5z"/>
<path d="M5248 3 c6 -2 18 -2 25 0 6 3 1 5 -13 5 -14 0 -19 -2 -12 -5z"/>
<path d="M5303 3 c9 -2 23 -2 30 0 6 3 -1 5 -18 5 -16 0 -22 -2 -12 -5z"/>
</g>
</svg>
